<?xml version="1.0" encoding="UTF-8"?>
<svg id="Layer_1" xmlns="http://www.w3.org/2000/svg" viewBox="0 0 512 512">
  <path d="M445.138,251.776c-.021-35.17-37.701-59.194-68.965-67.797,24.695,13.957,58.804,36.458,59.493,66.584l-128.731-16.491c-14.645-2.913-26.094-14.361-29.006-29.006l-9.431-41.381c14.887.298,29.761,1.456,44.495,3.568l-26.568,3.404,57.033,7.306c4.88.97,8.694,4.785,9.664,9.664l7.306,32.058,7.306-32.058c.97-4.88,4.785-8.694,9.665-9.664l57.033-7.306-57.033-7.306c-4.88-.97-8.694-4.785-9.665-9.665l-7.306-32.058-7.306,32.058c-.97,4.88-4.785,8.694-9.664,9.665l-27.586,3.534c-15.577-2.815-31.647-4.627-47.87-5.381l-12-52.656-11.922,52.312c-38.413.713-76.758,7.486-110.589,21.093-42.176,17.31-64.827,43.046-65.212,69.343l-34.388,4.406,35.106,4.497c3.582,20.175,20.44,40.155,51.814,56.407l-54.177,6.94,57.032,7.306c4.88.97,8.694,4.785,9.665,9.664l7.306,32.058,7.306-32.058c.921-4.63,4.404-8.296,8.926-9.489,27.22,8.51,56.582,13.062,85.978,14.107l13.155,57.72,13.152-57.711c23.395-.797,46.396-3.724,67.906-8.55,5.664-1.326,11.721-2.929,17.966-4.828.988,1.143,1.707,2.525,2.014,4.071l5.292,23.219,5.292-23.219c.703-3.534,3.466-6.297,7-7l41.308-5.292-29.305-3.754c26.81-12.531,51.066-31.187,57.452-57.908.128-.625.243-1.247.347-1.866l33.688-4.316-32.974-4.224ZM177.491,328.603l37.147-4.759-57.033-7.306c-4.88-.971-8.694-4.785-9.665-9.665l-7.306-32.059-7.306,32.059c-.465,2.339-1.589,4.428-3.165,6.082-.493-.218-.993-.42-1.485-.641-21.535-9.76-46.896-27.656-52.645-50.915l129.031,16.529c14.645,2.913,26.094,14.361,29.007,29.006l6.784,29.768c-21.358-.701-42.668-3.288-63.365-8.1ZM234.072,205.065c-2.913,14.645-14.361,26.093-29.007,29.006l-130.22,16.682c.106-4.73,1.049-9.64,3-14.712,6.365-16.093,20.025-27.852,34.39-36.995,37.699-22.979,82.422-31.986,126.086-34.84,1.704-.093,3.41-.166,5.116-.239l-9.366,41.098ZM432.621,267.37c-10.075,23.002-34.738,38.885-61.708,49.482-1.665-1.289-2.864-3.147-3.292-5.299l-5.292-23.219-5.292,23.219c-.703,3.534-3.466,6.297-7,7l-41.307,5.292,28.231,3.616c-9.842,2.397-19.306,4.184-27.78,5.448-12.497,1.753-25.201,2.959-37.985,3.558l6.73-29.533c2.913-14.645,14.361-26.094,29.006-29.006l127.496-16.333c-.466,1.898-1.062,3.822-1.81,5.774Z"/>
</svg>