<?xml version="1.0" encoding="UTF-8"?>
<svg id="Layer_1" xmlns="http://www.w3.org/2000/svg" viewBox="0 0 512 512">
  <path d="M181.179,287.109l.938-4.716c4.305-21.646,21.226-38.568,42.873-42.873l4.716-.938-4.716-.938c-21.646-4.305-38.567-21.226-42.873-42.873l-.938-4.716-.938,4.716c-4.305,21.646-21.226,38.568-42.873,42.873l-4.716.938,4.716.938c21.646,4.305,38.568,21.226,42.873,42.873l.938,4.716Z"/>
  <path d="M181.179,178.923l3.26-18.027c1.536-8.495,1.536-17.197,0-25.692l-3.26-18.027-3.26,18.027c-1.537,8.495-1.537,17.197,0,25.692l3.26,18.027Z"/>
  <path d="M147.87,186.103l9.462,11.177-4.948-13.783c-2.332-6.495-5.81-12.52-10.27-17.787l-9.462-11.177,4.949,13.783c2.332,6.495,5.81,12.52,10.269,17.787Z"/>
  <path d="M126.093,209.788l13.783,4.949-11.177-9.463c-5.267-4.459-11.292-7.937-17.787-10.269l-13.784-4.948,11.177,9.463c5.268,4.459,11.292,7.937,17.787,10.269Z"/>
  <path d="M121.52,238.583l-18.027-3.26c-8.495-1.536-17.197-1.536-25.692,0l-18.027,3.26,18.027,3.26c8.495,1.536,17.197,1.536,25.692,0l18.027-3.26Z"/>
  <path d="M126.093,267.377c-6.496,2.332-12.52,5.81-17.787,10.269l-11.177,9.463,13.784-4.949c6.495-2.332,12.52-5.81,17.787-10.269l11.177-9.463-13.783,4.948Z"/>
  <path d="M137.601,308.849l-4.949,13.783,9.462-11.177c4.459-5.267,7.938-11.292,10.27-17.787l4.948-13.783-9.462,11.177c-4.459,5.267-7.938,11.292-10.269,17.787Z"/>
  <path d="M184.439,341.961c1.536-8.495,1.536-17.197,0-25.692l-3.26-18.027-3.26,18.027c-1.537,8.495-1.537,17.197,0,25.692l3.26,18.027,3.26-18.027Z"/>
  <path d="M220.243,311.455l9.462,11.177-4.948-13.783c-2.332-6.495-5.811-12.52-10.27-17.787l-9.462-11.177,4.949,13.783c2.332,6.495,5.81,12.52,10.269,17.787Z"/>
  <path d="M265.229,287.109l-11.177-9.463c-5.267-4.459-11.292-7.937-17.787-10.269l-13.783-4.948,11.177,9.463c5.267,4.459,11.292,7.937,17.787,10.269l13.784,4.949Z"/>
  <path d="M258.865,235.322l-18.027,3.26,18.027,3.26c8.495,1.536,17.197,1.536,25.692,0l18.027-3.26-18.027-3.26c-8.495-1.536-17.197-1.536-25.692,0Z"/>
  <path d="M236.265,209.788c6.496-2.332,12.52-5.81,17.787-10.269l11.177-9.463-13.784,4.948c-6.495,2.332-12.52,5.81-17.787,10.269l-11.177,9.463,13.783-4.949Z"/>
  <path d="M224.757,168.316l4.948-13.783-9.462,11.177c-4.459,5.267-7.938,11.292-10.269,17.787l-4.949,13.783,9.462-11.177c4.459-5.267,7.938-11.292,10.27-17.787Z"/>
  <path d="M311.092,123.994l6.967,1.385c14.505,2.885,25.844,14.224,28.729,28.729l1.386,6.967,1.386-6.967c2.885-14.505,14.224-25.844,28.729-28.729l6.967-1.385-6.967-1.385c-14.505-2.885-25.844-14.224-28.729-28.729l-1.386-6.967-1.386,6.967c-2.885,14.505-14.224,25.844-28.729,28.729l-6.967,1.385Z"/>
  <path d="M348.173,78.406l2.491-13.775c1.174-6.492,1.174-13.141,0-19.633l-2.491-13.776-2.491,13.776c-1.174,6.491-1.174,13.141,0,19.633l2.491,13.775Z"/>
  <path d="M322.721,83.892l7.23,8.541-3.781-10.533c-1.782-4.963-4.44-9.567-7.847-13.592l-7.231-8.541,3.782,10.533c1.782,4.963,4.439,9.567,7.847,13.592Z"/>
  <path d="M306.079,101.991l10.533,3.781-8.541-7.231c-4.025-3.407-8.628-6.065-13.592-7.847l-10.533-3.781,8.541,7.231c4.025,3.407,8.629,6.065,13.592,7.847Z"/>
  <path d="M288.809,126.486l13.776-2.491-13.776-2.491c-6.492-1.174-13.141-1.174-19.632,0l-13.775,2.491,13.775,2.491c6.491,1.174,13.141,1.174,19.632,0Z"/>
  <path d="M292.487,153.845l-8.541,7.231,10.533-3.781c4.963-1.782,9.567-4.44,13.592-7.847l8.541-7.231-10.533,3.781c-4.963,1.782-9.566,4.44-13.592,7.847Z"/>
  <path d="M318.323,179.68c3.407-4.025,6.065-8.628,7.847-13.592l3.781-10.532-7.23,8.541c-3.408,4.025-6.065,8.628-7.847,13.592l-3.782,10.533,7.231-8.541Z"/>
  <path d="M350.665,183.359l-2.491-13.776-2.491,13.776c-1.174,6.491-1.174,13.141,0,19.633l2.491,13.775,2.491-13.775c1.174-6.492,1.174-13.141,0-19.633Z"/>
  <path d="M378.024,179.68l7.231,8.541-3.782-10.533c-1.782-4.963-4.439-9.567-7.847-13.592l-7.23-8.541,3.781,10.532c1.782,4.963,4.44,9.567,7.847,13.592Z"/>
  <path d="M401.868,157.294l10.533,3.781-8.541-7.231c-4.025-3.407-8.628-6.065-13.592-7.847l-10.533-3.781,8.541,7.231c4.025,3.407,8.628,6.065,13.592,7.847Z"/>
  <path d="M393.762,123.994l13.776,2.491c6.492,1.174,13.141,1.174,19.632,0l13.776-2.491-13.776-2.491c-6.491-1.174-13.141-1.174-19.632,0l-13.776,2.491Z"/>
  <path d="M390.268,101.991c4.963-1.782,9.566-4.44,13.592-7.847l8.541-7.231-10.533,3.781c-4.963,1.782-9.567,4.44-13.592,7.847l-8.541,7.231,10.533-3.781Z"/>
  <path d="M381.473,70.3l3.782-10.533-7.231,8.541c-3.407,4.025-6.065,8.628-7.847,13.592l-3.781,10.533,7.23-8.541c3.408-4.025,6.065-8.628,7.847-13.592Z"/>
  <path d="M400.703,323.337l-4.653-.925c-14.505-2.885-25.844-14.224-28.729-28.729l-.925-4.653-.926,4.653c-2.885,14.505-14.224,25.844-28.729,28.729l-4.653.925,4.653.926c14.505,2.885,25.844,14.224,28.729,28.729l.926,4.653.925-4.653c2.885-14.505,14.224-25.844,28.729-28.729l4.653-.926Z"/>
  <path d="M364.09,250.251c-1.086,6.006-1.086,12.158,0,18.164l2.305,12.745,2.305-12.745c1.086-6.006,1.086-12.158,0-18.164l-2.305-12.745-2.305,12.745Z"/>
  <path d="M349.537,294.137l-3.499-9.745c-1.649-4.592-4.108-8.851-7.26-12.575l-6.69-7.902,3.499,9.745c1.649,4.592,4.108,8.851,7.26,12.575l6.69,7.902Z"/>
  <path d="M337.195,306.479l-7.902-6.69c-3.724-3.153-7.983-5.612-12.575-7.26l-9.745-3.499,7.902,6.69c3.724,3.153,7.983,5.612,12.575,7.26l9.745,3.499Z"/>
  <path d="M311.472,325.642l12.745-2.305-12.745-2.305c-6.006-1.086-12.158-1.086-18.164,0l-12.745,2.305,12.745,2.305c6.006,1.086,12.158,1.086,18.164,0Z"/>
  <path d="M327.45,343.695c-4.592,1.649-8.851,4.108-12.575,7.26l-7.902,6.69,9.745-3.499c4.592-1.649,8.852-4.108,12.575-7.26l7.902-6.69-9.745,3.499Z"/>
  <path d="M335.586,373.015l-3.499,9.745,6.69-7.902c3.152-3.724,5.611-7.983,7.26-12.575l3.499-9.745-6.69,7.902c-3.152,3.724-5.611,7.983-7.26,12.575Z"/>
  <path d="M366.396,365.516l-2.305,12.745c-1.086,6.006-1.086,12.158,0,18.164l2.305,12.745,2.305-12.745c1.086-6.006,1.086-12.158,0-18.164l-2.305-12.745Z"/>
  <path d="M389.944,360.44l-6.69-7.902,3.499,9.745c1.649,4.592,4.108,8.851,7.26,12.575l6.69,7.902-3.499-9.745c-1.648-4.592-4.107-8.851-7.26-12.575Z"/>
  <path d="M405.34,343.695l-9.745-3.499,7.902,6.69c3.724,3.152,7.983,5.611,12.575,7.26l9.745,3.499-7.902-6.69c-3.724-3.153-7.983-5.612-12.575-7.26Z"/>
  <path d="M439.482,321.033c-6.006-1.086-12.158-1.086-18.164,0l-12.745,2.305,12.745,2.305c6.006,1.086,12.158,1.086,18.164,0l12.745-2.305-12.745-2.305Z"/>
  <path d="M417.915,295.72l7.902-6.69-9.745,3.499c-4.592,1.648-8.851,4.107-12.575,7.26l-7.902,6.69,9.745-3.499c4.592-1.649,8.851-4.108,12.575-7.26Z"/>
  <path d="M397.204,273.66l3.499-9.745-6.69,7.902c-3.152,3.724-5.611,7.983-7.26,12.575l-3.499,9.745,6.69-7.902c3.153-3.724,5.612-7.983,7.26-12.575Z"/>
  <path d="M269.438,416.773l-1.11-.221c-12.245-2.435-21.817-12.007-24.252-24.252l-.221-1.11-.221,1.11c-2.436,12.245-12.008,21.817-24.253,24.252l-1.109.221,1.109.221c12.245,2.435,21.817,12.007,24.253,24.252l.221,1.11.221-1.11c2.435-12.245,12.007-21.817,24.252-24.252l1.11-.221Z"/>
  <path d="M242.137,362.272c-.81,4.479-.81,9.066,0,13.545l1.719,9.504,1.719-9.504c.81-4.479.81-9.066,0-13.545l-1.719-9.504-1.719,9.504Z"/>
  <path d="M231.284,394.998l-2.609-7.267c-1.229-3.424-3.063-6.6-5.414-9.377l-4.989-5.893,2.609,7.267c1.229,3.424,3.063,6.6,5.414,9.377l4.989,5.893Z"/>
  <path d="M205.437,396.178c2.777,2.351,5.953,4.184,9.377,5.414l7.267,2.609-5.893-4.989c-2.777-2.351-5.953-4.185-9.377-5.414l-7.267-2.609,5.893,4.989Z"/>
  <path d="M212.403,416.773l-9.504-1.719c-4.479-.81-9.066-.81-13.544,0l-9.504,1.719,9.504,1.719c4.479.81,9.066.81,13.544,0l9.504-1.719Z"/>
  <path d="M214.814,431.953c-3.424,1.229-6.6,3.063-9.377,5.414l-5.893,4.989,7.267-2.609c3.424-1.229,6.601-3.063,9.377-5.414l5.893-4.989-7.267,2.609Z"/>
  <path d="M220.881,453.817l-2.608,7.267,4.988-5.893c2.351-2.777,4.185-5.953,5.414-9.377l2.609-7.267-4.989,5.893c-2.351,2.777-4.185,5.953-5.414,9.377Z"/>
  <path d="M243.855,448.225l-1.719,9.504c-.81,4.479-.81,9.066,0,13.545l1.719,9.504,1.719-9.504c.81-4.479.81-9.066,0-13.545l-1.719-9.504Z"/>
  <path d="M261.416,444.44l-4.989-5.893,2.609,7.267c1.229,3.424,3.063,6.601,5.414,9.377l4.989,5.893-2.609-7.267c-1.229-3.424-3.063-6.6-5.414-9.377Z"/>
  <path d="M272.896,431.953l-7.267-2.609,5.893,4.989c2.777,2.351,5.953,4.185,9.377,5.414l7.267,2.609-5.893-4.989c-2.776-2.351-5.953-4.185-9.377-5.414Z"/>
  <path d="M284.812,415.054l-9.504,1.719,9.504,1.719c4.479.81,9.066.81,13.545,0l9.504-1.719-9.504-1.719c-4.479-.81-9.066-.81-13.545,0Z"/>
  <path d="M282.273,396.178l5.893-4.989-7.267,2.609c-3.424,1.229-6.601,3.063-9.377,5.414l-5.893,4.989,7.267-2.609c3.424-1.229,6.601-3.063,9.377-5.414Z"/>
  <path d="M266.83,379.728l2.609-7.267-4.989,5.893c-2.351,2.777-4.185,5.953-5.414,9.377l-2.609,7.267,4.989-5.893c2.351-2.777,4.185-5.953,5.414-9.377Z"/>
</svg>