<?xml version="1.0" encoding="UTF-8"?>
<svg id="Layer_1" xmlns="http://www.w3.org/2000/svg" viewBox="0 0 512 512">
  <path d="M197.475,274.875c-10.786-2.145-19.217-10.576-21.362-21.362l-16.149-126.065-16.149,126.065c-2.145,10.786-10.576,19.217-21.362,21.362l-70.861,16.149,70.861,16.149c10.786,2.145,19.217,10.576,21.362,21.362l16.149,47.451,16.149-47.451c2.145-10.786,10.576-19.217,21.362-21.362l70.861-16.149-70.861-16.149Z"/>
  <path d="M344.198,195.591l57.797-13.172-57.797-13.172c-8.797-1.75-15.674-8.626-17.424-17.424l-13.172-102.823-13.172,102.823c-1.75,8.797-8.627,15.674-17.424,17.424l-57.797,13.172,57.797,13.172c8.797,1.75,15.674,8.627,17.424,17.424l13.172,38.703,13.172-38.703c1.75-8.797,8.626-15.674,17.424-17.424Z"/>
  <path d="M417.576,357.094c-6.52-1.296-11.616-6.393-12.913-12.913l-9.762-76.201-9.762,76.201c-1.297,6.52-6.393,11.616-12.913,12.913l-42.833,9.762,42.833,9.762c6.52,1.297,11.616,6.393,12.913,12.913l9.762,28.683,9.762-28.683c1.297-6.52,6.393-11.616,12.913-12.913l42.833-9.762-42.833-9.762Z"/>
  <path d="M259.469,413.948l-6.468-50.49-6.468,50.49c-.859,4.32-4.236,7.697-8.556,8.556l-28.38,6.468,28.38,6.468c4.32.859,7.697,4.236,8.556,8.556l6.468,19.005,6.468-19.005c.859-4.32,4.236-7.697,8.556-8.556l28.38-6.468-28.38-6.468c-4.32-.859-7.697-4.236-8.556-8.556Z"/>
</svg>