<?xml version="1.0" encoding="UTF-8"?>
<svg id="Layer_1" xmlns="http://www.w3.org/2000/svg" viewBox="0 0 512 512">
  <polygon points="173.653 235.49 186.172 330.648 198.691 235.49 232.786 261.656 206.62 227.562 301.778 215.043 206.62 202.523 232.786 168.429 198.691 194.595 186.172 99.437 173.653 194.595 139.559 168.429 165.725 202.523 70.566 215.043 165.725 227.562 139.559 261.656 173.653 235.49"/>
  <polygon points="305.38 161.686 279.214 195.78 313.309 169.614 325.828 264.772 338.347 169.614 372.441 195.78 346.275 161.686 441.434 149.167 346.275 136.647 372.441 102.553 338.347 128.719 325.828 33.561 313.309 128.719 279.214 102.553 305.38 136.647 210.222 149.167 305.38 161.686"/>
  <polygon points="305.141 350.314 331.307 316.219 297.212 342.386 284.693 247.228 272.174 342.386 238.08 316.219 264.246 350.314 169.088 362.833 264.246 375.353 238.08 409.447 272.174 383.281 284.693 478.439 297.212 383.281 331.307 409.447 305.141 375.353 400.299 362.833 305.141 350.314"/>
</svg>