<?xml version="1.0" encoding="UTF-8"?>
<svg id="Layer_1" xmlns="http://www.w3.org/2000/svg" viewBox="0 0 512 512">
  <polygon points="348.208 275.865 213.461 302.068 194.111 163.907 174.762 302.068 40.014 275.865 162.803 338.873 98.874 457.017 194.111 361.62 289.349 457.017 225.42 338.873 348.208 275.865"/>
  <polygon points="254.496 269.219 331.826 191.76 409.156 269.219 357.248 173.29 456.948 122.129 347.537 143.405 331.826 31.222 316.114 143.405 206.703 122.129 306.404 173.29 254.496 269.219"/>
  <polygon points="471.986 369.391 389.132 385.503 377.234 300.551 365.337 385.503 282.483 369.391 357.983 408.134 318.675 480.778 377.234 422.12 435.794 480.778 396.485 408.134 471.986 369.391"/>
</svg>