<?xml version="1.0" encoding="UTF-8"?>
<svg id="Layer_1" xmlns="http://www.w3.org/2000/svg" viewBox="0 0 512 512">
  <path d="M315.791,230.259c-17.192-3.419-30.631-16.858-34.05-34.05l-25.741-129.431-25.741,129.431c-3.419,17.192-16.858,30.631-34.05,34.05l-129.431,25.741,129.431,25.741c17.192,3.419,30.631,16.858,34.05,34.05l25.741,129.431,25.741-129.431c3.419-17.192,16.858-30.631,34.05-34.05l129.431-25.741-129.431-25.741Z"/>
  <circle cx="133.229" cy="134.382" r="18.906" transform="translate(-50.751 90.112) rotate(-31.717)"/>
  <circle cx="370.24" cy="359.404" r="18.906"/>
  <circle cx="152.135" cy="400.293" r="18.906"/>
  <circle cx="344.186" cy="160.386" r="18.906" transform="translate(-35.178 143.923) rotate(-22.5)"/>
</svg>