<?xml version="1.0" encoding="UTF-8"?>
<svg id="Layer_1" xmlns="http://www.w3.org/2000/svg" viewBox="0 0 512 512">
  <polygon points="170.137 255.482 159.165 172.077 148.192 255.482 33.889 167.758 121.613 282.061 38.207 293.034 121.613 304.007 33.889 418.309 148.192 330.585 159.165 413.991 170.137 330.585 284.44 418.309 196.716 304.007 280.121 293.034 196.716 282.061 284.44 167.758 170.137 255.482"/>
  <polygon points="474.87 187.711 412.273 179.476 478.111 93.691 392.326 159.528 384.09 96.932 375.855 159.528 290.07 93.691 355.907 179.476 293.311 187.711 355.907 195.947 290.07 281.732 375.855 215.895 384.09 278.491 392.326 215.895 478.111 281.732 412.273 195.947 474.87 187.711"/>
</svg>