<?xml version="1.0" encoding="UTF-8"?>
<svg id="Layer_1" xmlns="http://www.w3.org/2000/svg" viewBox="0 0 512 512">
  <path d="M420.032,245.864c-2.249-36.772-16.65-70.308-39.219-96.649,5.433-4.509,11.99-7.72,19.213-9.157l24.124-4.798-24.124-4.798c-17.192-3.419-30.631-16.858-34.05-34.05l-4.798-24.124-4.798,24.124c-1.651,8.303-5.645,15.726-11.264,21.572-23.026-14.918-49.996-24.244-78.98-26.017l-10.136-50.968-10.136,50.968c-82.567,5.049-148.847,71.329-153.896,153.896l-50.967,10.136,50.967,10.136c2.103,34.387,14.833,65.943,34.93,91.433-6.104,6.681-14.274,11.436-23.538,13.279l-24.125,4.798,24.125,4.798c17.192,3.419,30.631,16.858,34.05,34.05l4.798,24.124,4.798-24.124c1.924-9.675,7.022-18.162,14.176-24.343,24.222,17.17,53.271,27.961,84.683,29.882l10.136,50.967,10.136-50.967c82.567-5.05,148.847-71.329,153.896-153.896l50.968-10.136-50.968-10.136ZM170.49,384.007c3.304-1.614,6.846-2.824,10.565-3.564l24.124-4.798-24.124-4.798c-17.192-3.419-30.631-16.858-34.05-34.05l-4.798-24.124-4.798,24.124c-.843,4.237-2.296,8.245-4.263,11.932-17.22-22.758-28.28-50.425-30.654-80.501l88.414,17.584c17.813,3.543,31.738,17.468,35.281,35.281l17.584,88.414c-26.962-2.128-51.991-11.232-73.281-25.5ZM226.187,190.906c-3.543,17.813-17.468,31.738-35.281,35.281l-88.414,17.584c5.935-75.181,66.097-135.343,141.278-141.278l-17.584,88.414ZM268.229,409.508l17.584-88.414c3.542-17.813,17.467-31.738,35.281-35.281l88.414-17.584c-5.935,75.181-66.097,135.343-141.278,141.278ZM321.094,226.187c-17.813-3.542-31.738-17.468-35.281-35.281l-17.584-88.414c24.921,1.968,48.188,9.898,68.381,22.355-4.311,2.658-9.125,4.59-14.28,5.615l-24.124,4.798,24.124,4.798c17.192,3.419,30.631,16.858,34.05,34.05l4.798,24.124,4.798-24.124c1.275-6.411,3.945-12.3,7.682-17.342,20.187,23.897,33.243,54.003,35.849,87.005l-88.414-17.584Z"/>
</svg>