<?xml version="1.0" encoding="UTF-8"?>
<svg id="Layer_1" xmlns="http://www.w3.org/2000/svg" viewBox="0 0 512 512">
  <path d="M275.128,208.416l-20.486-159.916-20.486,159.916c-2.721,13.682-13.417,24.377-27.098,27.098l-89.889,20.486,89.889,20.486c13.682,2.721,24.377,13.416,27.098,27.098l20.486,159.916,20.486-159.916c2.721-13.682,13.417-24.377,27.098-27.098l89.889-20.486-89.889-20.486c-13.682-2.721-24.377-13.416-27.098-27.098Z"/>
  <path d="M351.904,144.943l5.567,43.458,5.567-43.458c.74-3.718,3.646-6.625,7.364-7.364l24.428-5.567-24.428-5.567c-3.718-.74-6.625-3.646-7.364-7.364l-5.567-43.458-5.567,43.458c-.74,3.718-3.646,6.625-7.364,7.364l-24.428,5.567,24.428,5.567c3.718.74,6.625,3.646,7.364,7.364Z"/>
  <path d="M167.816,332.396l-3.471-27.097-3.471,27.097c-.461,2.318-2.273,4.131-4.592,4.592l-15.231,3.471,15.231,3.471c2.319.461,4.131,2.273,4.592,4.592l3.471,27.097,3.471-27.097c.461-2.318,2.273-4.131,4.592-4.592l15.231-3.471-15.231-3.471c-2.318-.461-4.131-2.273-4.592-4.592Z"/>
  <path d="M330.455,379.468l-2.175-16.979-2.175,16.979c-.289,1.453-1.425,2.588-2.877,2.877l-9.544,2.175,9.544,2.175c1.453.289,2.588,1.424,2.877,2.877l2.175,16.979,2.175-16.979c.289-1.453,1.425-2.588,2.877-2.877l9.544-2.175-9.544-2.175c-1.453-.289-2.588-1.424-2.877-2.877Z"/>
</svg>