<?xml version="1.0" encoding="UTF-8"?>
<svg id="Layer_1" xmlns="http://www.w3.org/2000/svg" viewBox="0 0 512 512">
  <path d="M191.464,244.354h56.828c19.218,0,38.248-3.773,56.012-11.106-17.764-7.333-36.795-11.106-56.012-11.106h-56.828l40.183-40.183c13.589-13.589,24.377-29.714,31.753-47.459-17.746,7.376-33.871,18.164-47.459,31.753l-40.183,40.183v-56.828c0-19.218-3.773-38.248-11.106-56.012-7.333,17.764-11.106,36.794-11.106,56.012v56.828l-40.183-40.183c-13.589-13.589-29.714-24.378-47.46-31.753,7.376,17.746,18.165,33.871,31.753,47.459l40.183,40.183h-56.828c-19.218,0-38.248,3.773-56.012,11.106,17.764,7.333,36.794,11.106,56.012,11.106h56.828l-40.183,40.183c-13.589,13.589-24.377,29.714-31.753,47.46,17.746-7.376,33.871-18.165,47.46-31.753l40.183-40.183v56.828c0,19.218,3.773,38.248,11.106,56.012,7.333-17.764,11.106-36.794,11.106-56.012v-56.828l40.183,40.183c13.589,13.589,29.714,24.377,47.459,31.753-7.376-17.746-18.164-33.871-31.753-47.46l-40.183-40.183Z"/>
  <path d="M398.959,358.1h44.339c14.994,0,29.843-2.944,43.702-8.665-13.86-5.721-28.708-8.665-43.702-8.665h-44.339l31.352-31.352c10.603-10.603,19.02-23.184,24.775-37.03-13.846,5.755-26.427,14.172-37.03,24.775l-31.352,31.352v-44.339c0-14.994-2.944-29.843-8.665-43.702-5.721,13.86-8.665,28.708-8.665,43.702v44.339l-31.352-31.352c-10.603-10.603-23.184-19.02-37.03-24.775,5.755,13.846,14.172,26.427,24.775,37.03l31.352,31.352h-44.339c-14.994,0-29.843,2.944-43.702,8.665,13.86,5.721,28.708,8.665,43.702,8.665h44.339l-31.352,31.352c-10.603,10.603-19.02,23.184-24.775,37.03,13.846-5.755,26.427-14.172,37.03-24.775l31.352-31.352v44.339c0,14.994,2.944,29.843,8.665,43.702,5.721-13.86,8.665-28.708,8.665-43.702v-44.339l31.352,31.352c10.603,10.603,23.184,19.02,37.03,24.775-5.755-13.846-14.172-26.427-24.775-37.03l-31.352-31.352Z"/>
  <path d="M297.363,130.096c9.73,4.016,20.153,6.083,30.679,6.083h31.126l-22.01,22.01c-7.443,7.443-13.352,16.275-17.392,25.995,9.72-4.04,18.552-9.949,25.995-17.392l22.01-22.01v31.126c0,10.526,2.067,20.95,6.083,30.679,4.016-9.73,6.083-20.153,6.083-30.679v-31.126l22.01,22.01c7.443,7.443,16.275,13.352,25.995,17.392-4.04-9.72-9.949-18.552-17.392-25.995l-22.01-22.01h31.126c10.526,0,20.95-2.067,30.679-6.083-9.73-4.016-20.153-6.083-30.679-6.083h-31.126l22.01-22.01c7.443-7.443,13.352-16.275,17.392-25.995-9.72,4.04-18.552,9.949-25.995,17.392l-22.01,22.01v-31.126c0-10.526-2.067-20.95-6.083-30.679-4.016,9.73-6.083,20.153-6.083,30.679v31.126l-22.01-22.01c-7.443-7.443-16.275-13.352-25.995-17.392,4.04,9.72,9.949,18.552,17.392,25.995l22.01,22.01h-31.126c-10.526,0-20.95,2.067-30.679,6.083Z"/>
</svg>