<?xml version="1.0" encoding="UTF-8"?>
<svg id="Layer_1" xmlns="http://www.w3.org/2000/svg" viewBox="0 0 512 512">
  <path d="M380.843,239.561c-54.734-10.885-97.519-53.671-108.405-108.405l-16.439-82.657-16.439,82.657c-10.885,54.734-53.671,97.519-108.405,108.405l-82.657,16.439,82.657,16.439c54.734,10.885,97.519,53.671,108.405,108.405l16.439,82.657,16.439-82.657c10.885-54.734,53.671-97.519,108.405-108.405l82.657-16.439-82.657-16.439Z"/>
  <path d="M160.969,168.793l.258,1.296.258-1.296c4.16-20.918,20.512-37.27,41.431-41.43l1.296-.258-1.296-.258c-20.918-4.16-37.27-20.512-41.431-41.43l-.258-1.296-.258,1.296c-4.16,20.918-20.512,37.27-41.43,41.43l-1.296.258,1.296.258c20.918,4.16,37.27,20.512,41.43,41.43Z"/>
  <path d="M91.734,111.331l.12.605.12-.605c1.944-9.773,9.583-17.413,19.356-19.356l.605-.12-.605-.12c-9.773-1.944-17.413-9.583-19.356-19.356l-.12-.605-.12.605c-1.944,9.773-9.583,17.413-19.356,19.356l-.605.12.605.12c9.773,1.944,17.413,9.583,19.356,19.356Z"/>
</svg>