<?xml version="1.0" encoding="UTF-8"?>
<svg id="Layer_1" xmlns="http://www.w3.org/2000/svg" viewBox="0 0 512 512">
  <path d="M401.889,158.391c-2.905-8.362-9.524-14.981-17.887-17.887l-9.523-72.386-9.523,72.386c-8.362,2.905-14.981,9.524-17.887,17.887l-72.386,9.523,72.386,9.523c2.905,8.362,9.524,14.981,17.887,17.886l5.228,39.738-101.573-13.363c-4.547-13.087-14.906-23.446-27.993-27.993l-14.904-113.288-14.904,113.288c-13.087,4.547-23.446,14.906-27.993,27.993l-113.288,14.905,113.288,14.904c4.547,13.087,14.906,23.447,27.993,27.993l14.904,113.288,14.904-113.288c13.087-4.547,23.446-14.906,27.993-27.993l101.972-13.416,3.897,29.618,4.034-30.662,3.386-.445-3.271-.43,5.374-40.848c8.362-2.905,14.981-9.524,17.887-17.886l72.386-9.523-72.386-9.523Z"/>
  <path d="M126.885,340.133l-7.767-59.038-7.767,59.038c-6.82,2.369-12.219,7.768-14.588,14.588l-59.038,7.767,59.038,7.767c2.37,6.82,7.768,12.219,14.588,14.588l7.767,59.038,7.767-59.038c6.82-2.37,12.219-7.768,14.588-14.588l59.038-7.767-59.038-7.767c-2.37-6.82-7.768-12.219-14.588-14.588Z"/>
</svg>