<?xml version="1.0" encoding="UTF-8"?>
<svg id="Layer_1" xmlns="http://www.w3.org/2000/svg" viewBox="0 0 512 512">
  <polygon points="209.266 238.373 336.508 230.409 209.266 222.445 275.155 147.759 200.468 213.647 192.504 86.405 184.54 213.647 109.854 147.759 175.742 222.445 48.5 230.409 175.742 238.373 109.854 313.059 184.54 247.171 192.504 374.413 200.468 247.171 275.155 313.059 209.266 238.373"/>
  <polygon points="463.5 330.274 389.226 325.625 427.687 282.029 384.09 320.49 379.442 246.216 374.793 320.49 331.197 282.029 369.657 325.625 295.383 330.274 369.657 334.923 331.197 378.519 374.793 340.059 379.442 414.332 384.09 340.059 427.687 378.519 389.226 334.923 463.5 330.274"/>
  <polygon points="353.958 148.962 344.922 159.204 355.165 150.168 356.257 167.618 357.349 150.168 367.591 159.204 358.555 148.962 376.005 147.87 358.555 146.778 367.591 136.535 357.349 145.571 356.257 128.121 355.165 145.571 344.922 136.535 353.958 146.778 336.508 147.87 353.958 148.962"/>
  <polygon points="116.818 368.787 125.854 358.545 115.612 367.58 114.519 350.131 113.427 367.58 103.185 358.545 112.221 368.787 94.771 369.879 112.221 370.971 103.185 381.214 113.427 372.178 114.519 389.627 115.612 372.178 125.854 381.214 116.818 370.971 134.268 369.879 116.818 368.787"/>
  <polygon points="423.916 215.503 416.696 223.686 424.88 216.467 425.752 230.409 426.625 216.467 434.808 223.686 427.589 215.503 441.531 214.63 427.589 213.758 434.808 205.574 426.625 212.794 425.752 198.852 424.88 212.794 416.696 205.574 423.916 213.758 409.974 214.63 423.916 215.503"/>
  <polygon points="262.095 408.944 269.314 400.761 261.131 407.98 260.258 394.038 259.386 407.98 251.202 400.761 258.422 408.944 244.48 409.817 258.422 410.689 251.202 418.873 259.386 411.653 260.258 425.595 261.131 411.653 269.314 418.873 262.095 410.689 276.037 409.817 262.095 408.944"/>
</svg>