<?xml version="1.0" encoding="UTF-8"?>
<svg id="Layer_1" xmlns="http://www.w3.org/2000/svg" viewBox="0 0 512 512">
  <polygon points="354.115 296.689 332.193 282.029 463.071 256 332.284 229.989 354.149 215.393 314.221 223.32 365.662 146.338 288.743 197.737 296.689 157.885 282.029 179.807 256 48.929 229.989 179.716 215.393 157.851 223.319 197.779 146.338 146.338 197.737 223.257 157.885 215.311 179.807 229.971 48.929 256 179.716 282.011 157.851 296.607 197.779 288.68 146.338 365.662 223.257 314.263 215.311 354.115 229.971 332.193 256 463.071 282.011 332.284 296.606 354.149 288.68 314.221 365.662 365.662 314.263 288.743 354.115 296.689"/>
  <polygon points="407.764 212.04 412.916 186.136 438.82 180.984 412.916 175.833 407.764 149.928 402.612 175.833 376.708 180.984 402.612 186.136 407.764 212.04"/>
  <polygon points="168.685 121.191 173.837 95.287 199.741 90.135 173.837 84.983 168.685 59.079 163.533 84.983 137.629 90.135 163.533 95.287 168.685 121.191"/>
  <polygon points="326.989 388.24 321.837 414.144 295.933 419.295 321.837 424.447 326.989 450.351 332.141 424.447 358.045 419.295 332.141 414.144 326.989 388.24"/>
</svg>