<?xml version="1.0" encoding="UTF-8"?>
<svg id="Layer_1" xmlns="http://www.w3.org/2000/svg" viewBox="0 0 512 512">
  <path d="M167.579,186.441c.348-1.748.884-3.426,1.585-5.013l36.966,24.702-24.701-36.966c1.587-.701,3.264-1.237,5.013-1.585l71.698-14.259-71.698-14.259c-1.748-.348-3.426-.884-5.013-1.585l24.701-36.966-36.966,24.702c-.701-1.587-1.237-3.264-1.585-5.013l-14.259-71.698-14.259,71.698c-.348,1.748-.884,3.426-1.585,5.013l-36.966-24.702,24.701,36.966c-1.587.701-3.264,1.237-5.013,1.585l-71.698,14.259,71.698,14.259c1.749.348,3.426.884,5.013,1.585l-24.701,36.966,36.966-24.702c.701,1.587,1.237,3.264,1.585,5.013l14.259,71.698,14.259-71.698Z"/>
  <path d="M298.608,108.334l14.277,2.839c.348.069.682.176.998.316l-4.919,7.361,7.361-4.919c.14.316.247.65.316.998l2.84,14.277,2.839-14.277c.069-.348.176-.682.315-.998l7.361,4.919-4.919-7.361c.316-.14.65-.246.998-.316l14.277-2.839-14.277-2.839c-.348-.069-.682-.176-.998-.316l4.919-7.361-7.361,4.919c-.139-.316-.246-.65-.315-.998l-2.839-14.277-2.84,14.277c-.069.348-.176.682-.316.998l-7.361-4.919,4.919,7.361c-.316.139-.65.246-.998.316l-14.277,2.839Z"/>
  <path d="M101.666,283.204l-13.668-2.718c-.333-.066-.653-.169-.956-.302l4.709-7.047-7.047,4.709c-.134-.302-.236-.622-.302-.956l-2.718-13.668-2.718,13.668c-.066.333-.168.653-.302.956l-7.047-4.709,4.709,7.047c-.302.134-.622.236-.956.302l-13.668,2.718,13.668,2.718c.333.066.653.169.956.302l-4.709,7.047,7.047-4.709c.134.302.236.622.302.956l2.718,13.668,2.718-13.668c.066-.333.169-.653.302-.956l7.047,4.709-4.709-7.047c.302-.133.622-.236.956-.302l13.668-2.718Z"/>
  <path d="M188.417,370.282l-10.07-2.003c-.246-.049-.481-.124-.704-.223l3.469-5.192-5.192,3.469c-.098-.223-.174-.458-.223-.704l-2.002-10.07-2.003,10.07c-.049.246-.124.481-.223.704l-5.192-3.469,3.469,5.192c-.223.098-.458.174-.704.223l-10.07,2.003,10.07,2.003c.246.049.481.124.704.223l-3.469,5.192,5.192-3.469c.098.223.174.458.223.704l2.003,10.07,2.002-10.07c.049-.246.124-.481.223-.704l5.192,3.469-3.469-5.192c.223-.098.458-.174.704-.223l10.07-2.003Z"/>
  <path d="M357.416,329.508l106.084-21.098-106.084-21.098c-2.587-.515-5.069-1.308-7.417-2.345l36.548-54.695-54.695,36.548c-1.036-2.348-1.83-4.83-2.344-7.417l-21.098-106.084-21.098,106.084c-.514,2.587-1.308,5.069-2.344,7.417l-54.695-36.548,36.548,54.695c-2.348,1.036-4.83,1.83-7.417,2.345l-106.084,21.098,106.084,21.098c2.587.515,5.069,1.308,7.417,2.345l-36.548,54.695,54.695-36.548c1.036,2.348,1.83,4.83,2.344,7.417l21.098,106.084,21.098-106.084c.514-2.587,1.308-5.069,2.344-7.417l54.695,36.548-36.548-54.695c2.348-1.036,4.83-1.83,7.417-2.345Z"/>
</svg>