<?xml version="1.0" encoding="UTF-8"?>
<svg id="Layer_1" xmlns="http://www.w3.org/2000/svg" viewBox="0 0 512 512">
  <path d="M418.663,247.886c-4.11-83.361-71.188-150.439-154.549-154.549l-8.113-61.671-8.113,61.671c-83.361,4.11-150.439,71.188-154.549,154.549l-61.671,8.114,61.671,8.114c4.11,83.361,71.188,150.439,154.549,154.549l8.113,61.671,8.113-61.671c83.361-4.11,150.439-71.188,154.549-154.549l61.671-8.114-61.671-8.114ZM146.808,147.48l65.088,84.809-109.631,14.423c2.308-38.605,18.893-73.424,44.543-99.232ZM102.265,265.288l109.631,14.423-65.088,84.808c-25.65-25.808-42.235-60.627-44.543-99.232ZM147.48,365.192l84.809-65.088,14.423,109.631c-38.604-2.308-73.424-18.893-99.231-44.543ZM232.289,211.896l-84.809-65.088c25.808-25.651,60.627-42.236,99.232-44.544l-14.423,109.632ZM364.52,146.807l-84.809,65.088-14.423-109.632c38.604,2.308,73.424,18.893,99.232,44.544ZM265.288,409.735l14.423-109.631,84.809,65.088c-25.808,25.65-60.627,42.235-99.231,44.543ZM365.192,364.52l-65.088-84.808,109.631-14.423c-2.308,38.605-18.893,73.424-44.543,99.232ZM300.104,232.289l65.088-84.809c25.65,25.808,42.235,60.627,44.543,99.232l-109.631-14.423Z"/>
</svg>