<?xml version="1.0" encoding="UTF-8"?>
<svg id="Layer_1" xmlns="http://www.w3.org/2000/svg" viewBox="0 0 512 512">
  <polygon points="463.5 256 292.701 233.529 339.667 172.333 278.471 219.299 256 48.5 233.529 219.299 172.333 172.333 219.299 233.529 48.5 256 219.299 278.471 172.333 339.667 233.529 292.701 256 463.5 278.471 292.701 339.667 339.667 292.701 278.471 463.5 256"/>
  <polygon points="331.381 120.181 325.043 128.438 333.301 122.101 336.333 145.149 339.365 122.101 347.623 128.438 341.286 120.181 364.333 117.149 341.286 114.116 347.623 105.859 339.365 112.196 336.333 89.149 333.301 112.196 325.043 105.859 331.381 114.116 308.333 117.149 331.381 120.181"/>
  <polygon points="389.617 320.347 394.48 314.011 388.144 318.874 385.817 301.189 383.491 318.874 377.155 314.011 382.017 320.347 364.333 322.673 382.017 325 377.155 331.336 383.491 326.473 385.817 344.157 388.144 326.473 394.48 331.336 389.617 325 407.301 322.673 389.617 320.347"/>
  <polygon points="176.333 392.269 182.671 384.011 174.413 390.349 171.381 367.301 168.349 390.349 160.091 384.011 166.429 392.269 143.381 395.301 166.429 398.333 160.091 406.591 168.349 400.253 171.381 423.301 174.413 400.253 182.671 406.591 176.333 398.333 199.381 395.301 176.333 392.269"/>
</svg>