<?xml version="1.0" encoding="UTF-8"?>
<svg id="Layer_1" xmlns="http://www.w3.org/2000/svg" viewBox="0 0 512 512">
  <polygon points="445.222 256 301.613 237.107 389.8 122.2 274.894 210.387 256 66.778 237.106 210.387 122.2 122.2 210.387 237.107 66.778 256 210.387 274.893 122.2 389.8 237.106 301.613 256 445.222 274.894 301.613 389.8 389.8 301.613 274.893 445.222 256"/>
  <circle cx="420.778" cy="180.186" r="11.332"/>
  <circle cx="186.821" cy="113.295" r="11.332"/>
  <path d="M108.289,287.687c-4.738,0-8.579,3.841-8.579,8.579s3.841,8.579,8.579,8.579,8.579-3.841,8.579-8.579-3.841-8.579-8.579-8.579Z"/>
  <path d="M216.333,355.088c-4.738,0-8.579,3.841-8.579,8.579s3.841,8.579,8.579,8.579,8.579-3.841,8.579-8.579-3.841-8.579-8.579-8.579Z"/>
  <path d="M372.199,300.556c0,2.369,1.92,4.289,4.289,4.289s4.29-1.92,4.29-4.289-1.92-4.289-4.29-4.289-4.289,1.92-4.289,4.289Z"/>
  <path d="M388.933,334.88c-2.369,0-4.289,1.92-4.289,4.289s1.92,4.289,4.289,4.289,4.29-1.92,4.29-4.289-1.92-4.289-4.29-4.289Z"/>
</svg>