<?xml version="1.0" encoding="UTF-8"?>
<svg id="Layer_1" xmlns="http://www.w3.org/2000/svg" viewBox="0 0 512 512">
  <path d="M434.292,250.191c-87.087-17.32-155.163-85.397-172.483-172.483l-5.809-29.208-5.809,29.208c-17.32,87.087-85.396,155.164-172.483,172.483l-29.208,5.809,29.208,5.809c87.087,17.32,155.163,85.396,172.483,172.483l5.809,29.208,5.809-29.208c17.32-87.087,85.396-155.164,172.483-172.483l29.208-5.809-29.208-5.809Z"/>
  <path d="M94.667,178.195c6.443,0,11.667-5.223,11.667-11.667s-5.223-11.667-11.667-11.667-11.667,5.223-11.667,11.667,5.223,11.667,11.667,11.667Z"/>
  <circle cx="138" cy="354.183" r="11.667"/>
  <circle cx="177.333" cy="135.18" r="8.141"/>
  <circle cx="365.385" cy="401.614" r="8.141"/>
  <path d="M350.111,152.81c2.248,0,4.07-1.822,4.07-4.07s-1.822-4.07-4.07-4.07-4.07,1.822-4.07,4.07,1.822,4.07,4.07,4.07Z"/>
</svg>