<?xml version="1.0" encoding="UTF-8"?>
<svg id="Layer_1" xmlns="http://www.w3.org/2000/svg" viewBox="0 0 512 512">
  <path d="M168.026,305.324l.875-4.398c12.365-62.173,60.966-110.774,123.139-123.139l4.399-.875-4.399-.875c-62.173-12.365-110.774-60.966-123.139-123.139l-.875-4.398-.875,4.398c-12.365,62.173-60.966,110.774-123.139,123.139l-4.398.875,4.398.875c62.173,12.365,110.774,60.966,123.139,123.139l.875,4.398Z"/>
  <path d="M456.975,315.396c-41.605-8.274-74.128-40.798-82.403-82.403l-3.065-15.411-3.065,15.411c-8.274,41.605-40.798,74.128-82.403,82.403l-15.411,3.065,15.411,3.065c41.605,8.274,74.128,40.798,82.403,82.403l3.065,15.411,3.065-15.411c8.274-41.605,40.798-74.128,82.403-82.403l15.411-3.065-15.411-3.065Z"/>
  <path d="M206.579,334.782l-.446-2.243-.446,2.243c-6.305,31.703-31.088,56.486-62.792,62.792l-2.243.446,2.243.446c31.704,6.305,56.487,31.088,62.792,62.792l.446,2.243.446-2.243c6.305-31.703,31.088-56.486,62.792-62.792l2.243-.446-2.243-.446c-31.704-6.305-56.487-31.088-62.792-62.792Z"/>
  <path d="M356.177,157.909l.308,1.55.308-1.55c4.358-21.911,21.485-39.038,43.396-43.396l1.55-.308-1.55-.308c-21.91-4.358-39.038-21.485-43.396-43.396l-.308-1.55-.308,1.55c-4.358,21.911-21.485,39.038-43.396,43.396l-1.55.308,1.55.308c21.911,4.357,39.038,21.485,43.396,43.396Z"/>
</svg>