<?xml version="1.0" encoding="UTF-8"?>
<svg id="Layer_1" xmlns="http://www.w3.org/2000/svg" viewBox="0 0 512 512">
  <path d="M390.092,256l-87.678-19.982c-13.345-2.654-23.778-13.086-26.432-26.432l-19.982-155.982-19.982,155.982c-2.654,13.345-13.086,23.778-26.432,26.432l-87.678,19.982,87.678,19.982c13.345,2.654,23.778,13.086,26.432,26.432l19.982,155.982,19.982-155.982c2.654-13.345,13.086-23.778,26.432-26.432l87.678-19.982Z"/>
  <path d="M196.431,160.782l13.346,17.016-6.541-20.613c-3.082-9.713-7.882-18.795-14.171-26.814l-13.346-17.016,6.541,20.613c3.082,9.713,7.882,18.795,14.171,26.814Z"/>
  <path d="M177.8,185.498l20.632,6.48-17.055-13.296c-8.037-6.266-17.133-11.039-26.855-14.093l-20.632-6.48,17.055,13.296c8.037,6.266,17.133,11.039,26.855,14.093Z"/>
  <path d="M182.26,378.032l-6.541,20.613,13.346-17.016c6.289-8.019,11.089-17.101,14.171-26.814l6.541-20.613-13.346,17.016c-6.289,8.019-11.089,17.101-14.171,26.814Z"/>
  <path d="M198.432,320.022l-20.632,6.48c-9.722,3.054-18.818,7.827-26.855,14.093l-17.055,13.296,20.632-6.48c9.722-3.054,18.818-7.827,26.855-14.093l17.055-13.296Z"/>
  <path d="M329.74,133.968l6.541-20.613-13.346,17.016c-6.289,8.019-11.089,17.101-14.171,26.814l-6.541,20.613,13.346-17.016c6.289-8.019,11.089-17.1,14.171-26.814Z"/>
  <path d="M313.568,191.978l20.632-6.48c9.722-3.054,18.818-7.827,26.855-14.093l17.055-13.296-20.632,6.48c-9.722,3.054-18.818,7.827-26.855,14.093l-17.055,13.296Z"/>
  <path d="M315.569,351.218l-13.346-17.016,6.541,20.613c3.082,9.713,7.882,18.795,14.171,26.814l13.346,17.016-6.541-20.613c-3.082-9.713-7.882-18.795-14.171-26.814Z"/>
  <path d="M334.2,326.502l-20.632-6.48,17.055,13.296c8.037,6.266,17.133,11.039,26.855,14.093l20.632,6.48-17.055-13.296c-8.037-6.266-17.133-11.039-26.855-14.093Z"/>
</svg>