<?xml version="1.0" encoding="UTF-8"?>
<svg id="Layer_1" xmlns="http://www.w3.org/2000/svg" viewBox="0 0 512 512">
  <path d="M463.5,256l-82.657-16.439c-54.734-10.885-97.519-53.671-108.405-108.405l-16.439-82.657-16.439,82.657c-10.885,54.734-53.671,97.519-108.405,108.405l-82.657,16.439,82.657,16.439c54.734,10.885,97.519,53.671,108.405,108.405l16.439,82.657,16.439-82.657c10.885-54.734,53.671-97.519,108.405-108.405l82.657-16.439Z"/>
  <path d="M399.086,131.001l.548,2.756.548-2.756c2.54-12.771,12.524-22.755,25.295-25.295l2.756-.548-2.756-.548c-12.771-2.54-22.755-12.523-25.295-25.295l-.548-2.756-.548,2.756c-2.54,12.771-12.524,22.755-25.295,25.295l-2.756.548,2.756.548c12.771,2.54,22.755,12.523,25.295,25.295Z"/>
  <path d="M123.51,176.801l.548,2.756.548-2.756c2.54-12.771,12.524-22.755,25.295-25.295l2.756-.548-2.756-.548c-12.771-2.54-22.755-12.524-25.295-25.295l-.548-2.756-.548,2.756c-2.54,12.771-12.524,22.755-25.295,25.295l-2.756.548,2.756.548c12.771,2.54,22.755,12.524,25.295,25.295Z"/>
  <path d="M371.583,381.61l-.548-2.756-.548,2.756c-2.54,12.771-12.524,22.755-25.295,25.295l-2.756.548,2.756.548c12.771,2.54,22.755,12.524,25.295,25.295l.548,2.756.548-2.756c2.54-12.771,12.524-22.755,25.295-25.295l2.756-.548-2.756-.548c-12.771-2.54-22.755-12.524-25.295-25.295Z"/>
</svg>