<?xml version="1.0" encoding="UTF-8"?>
<svg id="Layer_1" xmlns="http://www.w3.org/2000/svg" viewBox="0 0 512 512">
  <path d="M343.245,256l-9.438-1.877c-38.337-7.625-68.306-37.593-75.931-75.931l-1.877-9.438-1.877,9.438c-7.624,38.337-37.593,68.306-75.931,75.931l-9.438,1.877,9.438,1.877c38.337,7.625,68.306,37.593,75.931,75.931l1.877,9.438,1.877-9.438c7.624-38.337,37.593-68.306,75.931-75.931l9.438-1.877Z"/>
  <path d="M256,148.739l5.861-32.411c2.762-15.273,2.762-30.918,0-46.192l-5.861-32.411-5.861,32.411c-2.762,15.273-2.762,30.918,0,46.192l5.861,32.411Z"/>
  <path d="M196.115,161.646l17.013,20.096-8.897-24.781c-4.193-11.678-10.446-22.509-18.463-31.979l-17.013-20.096,8.897,24.781c4.193,11.678,10.446,22.509,18.463,31.979Z"/>
  <path d="M156.961,204.23l24.781,8.897-20.096-17.013c-9.47-8.017-20.301-14.27-31.979-18.463l-24.781-8.897,20.096,17.013c9.47,8.017,20.301,14.27,31.979,18.463Z"/>
  <path d="M148.739,256l-32.411-5.861c-15.273-2.762-30.918-2.762-46.192,0l-32.411,5.861,32.411,5.861c15.273,2.762,30.918,2.762,46.192,0l32.411-5.861Z"/>
  <path d="M156.961,307.77c-11.678,4.193-22.509,10.446-31.979,18.463l-20.096,17.013,24.781-8.897c11.678-4.193,22.509-10.446,31.979-18.463l20.096-17.013-24.781,8.897Z"/>
  <path d="M177.652,382.332l-8.897,24.781,17.013-20.096c8.017-9.47,14.27-20.301,18.463-31.979l8.897-24.781-17.013,20.096c-8.017,9.47-14.27,20.301-18.463,31.979Z"/>
  <path d="M256,363.261l-5.861,32.411c-2.762,15.273-2.762,30.918,0,46.192l5.861,32.411,5.861-32.411c2.762-15.273,2.762-30.918,0-46.192l-5.861-32.411Z"/>
  <path d="M315.885,350.354l-17.013-20.096,8.897,24.781c4.193,11.678,10.446,22.509,18.463,31.979l17.013,20.096-8.897-24.781c-4.193-11.678-10.446-22.509-18.463-31.979Z"/>
  <path d="M355.039,307.77l-24.781-8.897,20.096,17.013c9.47,8.017,20.301,14.27,31.979,18.463l24.781,8.897-20.096-17.013c-9.47-8.017-20.301-14.27-31.979-18.463Z"/>
  <path d="M441.864,250.139c-15.273-2.762-30.918-2.762-46.192,0l-32.411,5.861,32.411,5.861c15.273,2.762,30.918,2.762,46.192,0l32.411-5.861-32.411-5.861Z"/>
  <path d="M355.039,204.23c11.678-4.193,22.509-10.446,31.979-18.463l20.096-17.013-24.781,8.897c-11.678,4.193-22.509,10.446-31.979,18.463l-20.096,17.013,24.781-8.897Z"/>
  <path d="M334.348,129.668l8.897-24.781-17.013,20.096c-8.017,9.47-14.27,20.301-18.463,31.979l-8.897,24.781,17.013-20.096c8.017-9.47,14.27-20.301,18.463-31.979Z"/>
</svg>