<?xml version="1.0" encoding="UTF-8"?>
<svg id="Layer_1" xmlns="http://www.w3.org/2000/svg" viewBox="0 0 512 512">
  <path d="M303.584,235.514c-13.682-2.721-24.377-13.416-27.098-27.098l-20.486-89.889-20.486,89.889c-2.721,13.682-13.416,24.377-27.098,27.098l-159.916,20.486,159.916,20.486c13.682,2.721,24.377,13.416,27.098,27.098l20.486,89.889,20.486-89.889c2.721-13.682,13.416-24.377,27.098-27.098l159.916-20.486-159.916-20.486Z"/>
  <path d="M121.655,176.85l2.895,22.002,2.895-22.002c2.542-.883,4.554-2.895,5.437-5.437l22.002-2.895-22.002-2.895c-.883-2.542-2.895-4.554-5.437-5.437l-2.895-22.002-2.895,22.002c-2.542.883-4.554,2.895-5.437,5.437l-22.002,2.895,22.002,2.895c.883,2.542,2.895,4.554,5.437,5.437Z"/>
  <path d="M329.095,329.665l-2.17-16.496-2.17,16.496c-1.906.662-3.414,2.17-4.076,4.076l-16.496,2.17,16.496,2.17c.662,1.906,2.171,3.414,4.076,4.076l2.17,16.496,2.17-16.496c1.906-.662,3.414-2.17,4.076-4.076l16.496-2.17-16.496-2.17c-.662-1.906-2.17-3.414-4.076-4.076Z"/>
  <path d="M362.042,169.291l1.622,12.33,1.622-12.33c1.424-.495,2.552-1.622,3.047-3.047l12.33-1.622-12.33-1.622c-.495-1.424-1.622-2.552-3.047-3.047l-1.622-12.33-1.622,12.33c-1.424.495-2.552,1.622-3.047,3.047l-12.33,1.622,12.33,1.622c.495,1.424,1.622,2.552,3.047,3.047Z"/>
</svg>