<?xml version="1.0" encoding="UTF-8"?>
<svg id="Layer_1" xmlns="http://www.w3.org/2000/svg" viewBox="0 0 512 512">
  <path d="M285.427,243.778l26.17-30.374c11.277-11.277,20.23-24.658,26.351-39.385-14.727,6.121-28.108,15.074-39.385,26.351l-30.374,26.17v-82.823c0-25.791-4.141-51.332-12.189-75.171-8.048,23.84-12.189,49.38-12.189,75.171v82.823l-30.374-26.17c-11.277-11.277-24.658-20.23-39.385-26.351,6.121,14.727,15.074,28.108,26.351,39.385l26.17,30.374h-62.369c-21.092,0-41.978,4.141-61.474,12.189,19.496,8.048,40.382,12.189,61.474,12.189h62.369l-26.17,30.374c-11.277,11.277-20.23,24.658-26.351,39.385,14.727-6.121,28.108-15.074,39.385-26.351l30.374-26.17v82.823c0,25.791,4.141,51.331,12.189,75.171,8.048-23.84,12.189-49.38,12.189-75.171v-82.823l30.374,26.17c11.277,11.277,24.658,20.23,39.385,26.351-6.121-14.727-15.074-28.108-26.351-39.385l-26.17-30.374h62.369c21.092,0,41.978-4.141,61.474-12.189-19.496-8.048-40.382-12.189-61.474-12.189h-62.369Z"/>
  <circle cx="256" cy="50.407" r="12.682"/>
  <path d="M148.059,148.269c3.895-3.895,3.895-10.209,0-14.104-3.895-3.895-10.209-3.895-14.104,0-3.895,3.895-3.895,10.209,0,14.104,3.895,3.895,10.209,3.895,14.104,0Z"/>
  <circle cx="139.786" cy="370.229" r="9.973"/>
  <circle cx="253.805" cy="462.26" r="12.682"/>
  <circle cx="368.799" cy="371.45" r="9.973"/>
  <path d="M80.562,242.553c-7.004,0-12.683,5.678-12.683,12.682s5.678,12.682,12.683,12.682,12.682-5.678,12.682-12.682-5.678-12.682-12.682-12.682Z"/>
  <path d="M431.438,244.749c-7.004,0-12.682,5.678-12.682,12.682s5.678,12.682,12.682,12.682,12.683-5.678,12.683-12.682-5.678-12.682-12.683-12.682Z"/>
  <circle cx="370.019" cy="142.437" r="9.973"/>
</svg>