<?xml version="1.0" encoding="UTF-8"?>
<svg id="Layer_1" xmlns="http://www.w3.org/2000/svg" viewBox="0 0 512 512">
  <path d="M432.696,252.054c-.019-32.857-35.221-55.3-64.429-63.337,23.071,13.039,54.936,34.06,55.58,62.204l-120.262-15.406c-13.682-2.721-24.377-13.416-27.098-27.098l-8.81-38.659c23.722.475,47.413,3.265,70.469,8.882-22.381-6.078-46.471-9.785-70.933-10.92l-11.211-49.193-11.138,48.871c-35.886.666-71.708,6.993-103.313,19.706-39.401,16.171-60.563,40.215-60.922,64.782l-32.126,4.116,32.797,4.201c3.507,19.75,20.621,39.304,52.699,54.855,32.893,15.385,71.284,23.127,109.715,24.493l12.289,53.923,12.287-53.915c21.855-.745,43.344-3.479,63.439-7.988,36.468-8.541,90.279-29.215,99.978-69.796.119-.584.227-1.165.324-1.743l31.472-4.032-30.804-3.946ZM137.054,308.61c-20.118-9.118-43.811-25.836-49.182-47.566l120.543,15.442c13.682,2.721,24.377,13.416,27.098,27.098l6.338,27.81c-36.127-1.185-72.115-8.113-104.798-22.784ZM235.514,208.416c-2.721,13.682-13.417,24.377-27.098,27.098l-121.654,15.584c.099-4.419.98-9.006,2.802-13.744,5.946-15.035,18.708-26.019,32.128-34.561,35.219-21.467,77-29.882,117.792-32.548,1.592-.087,3.186-.156,4.78-.223l-8.75,38.394ZM421.002,266.621c-16.787,38.326-76.921,55.498-115.318,61.228-11.675,1.638-23.543,2.764-35.486,3.324l6.288-27.589c2.721-13.682,13.417-24.377,27.098-27.098l119.109-15.258c-.436,1.774-.992,3.571-1.69,5.394Z"/>
</svg>