<?xml version="1.0" encoding="UTF-8"?>
<svg id="Layer_1" xmlns="http://www.w3.org/2000/svg" viewBox="0 0 512 512">
  <path d="M463.071,256l-144.319-28.702c-17.192-3.419-30.631-16.858-34.05-34.05l-28.702-144.319-28.702,144.319c-3.419,17.192-16.858,30.631-34.05,34.05l-144.319,28.702,144.319,28.702c17.192,3.419,30.631,16.858,34.05,34.05l28.702,144.319,28.702-144.319c3.419-17.192,16.858-30.631,34.05-34.05l144.319-28.702Z"/>
  <path d="M157.493,177.285l37.224,25.823-25.823-37.224c-12.169-17.542-27.385-32.758-44.927-44.927l-37.225-25.823,25.823,37.224c12.169,17.542,27.385,32.758,44.927,44.927Z"/>
  <path d="M399.434,132.358l25.823-37.224-37.225,25.823c-17.542,12.169-32.758,27.385-44.927,44.927l-25.823,37.224,37.224-25.823c17.542-12.169,32.758-27.385,44.927-44.927Z"/>
  <path d="M112.566,379.642l-25.823,37.224,37.225-25.823c17.542-12.169,32.758-27.385,44.927-44.927l25.823-37.224-37.224,25.823c-17.542,12.169-32.758,27.385-44.927,44.927Z"/>
  <path d="M354.507,334.715l-37.224-25.823,25.823,37.224c12.169,17.542,27.385,32.758,44.927,44.927l37.225,25.823-25.823-37.224c-12.169-17.542-27.385-32.758-44.927-44.927Z"/>
</svg>