<?xml version="1.0" encoding="UTF-8"?>
<svg id="Layer_1" xmlns="http://www.w3.org/2000/svg" viewBox="0 0 512 512">
  <path d="M312.992,236.199c-6.041-17.387-19.803-31.15-37.19-37.191l-19.801-150.508-19.801,150.508c-17.387,6.041-31.15,19.803-37.19,37.191l-150.508,19.801,150.508,19.801c6.041,17.387,19.803,31.15,37.19,37.19l19.801,150.508,19.801-150.508c17.387-6.041,31.15-19.803,37.19-37.19l150.508-19.801-150.508-19.801Z"/>
  <path d="M371.561,364.335l-2.895-22.002-2.895,22.002c-2.542.883-4.554,2.895-5.437,5.437l-22.002,2.895,22.002,2.895c.883,2.542,2.895,4.554,5.437,5.437l2.895,22.002,2.895-22.002c2.542-.883,4.554-2.895,5.437-5.437l22.002-2.895-22.002-2.895c-.883-2.542-2.895-4.554-5.437-5.437Z"/>
  <path d="M151.77,155.77l2.895,22.002,2.895-22.002c2.542-.883,4.554-2.895,5.437-5.437l22.002-2.895-22.002-2.895c-.883-2.542-2.895-4.554-5.437-5.437l-2.895-22.002-2.895,22.002c-2.542.883-4.554,2.895-5.437,5.437l-22.002,2.895,22.002,2.895c.883,2.542,2.895,4.554,5.437,5.437Z"/>
</svg>