<?xml version="1.0" encoding="UTF-8"?>
<svg id="Layer_1" xmlns="http://www.w3.org/2000/svg" viewBox="0 0 512 512">
  <path d="M461.901,188.292c-15.904-3.163-28.337-15.596-31.5-31.5l-.805-4.047-.805,4.047c-3.163,15.904-15.596,28.337-31.5,31.5l-4.047.805,4.047.805c15.904,3.163,28.337,15.596,31.5,31.5l.805,4.047.805-4.047c3.163-15.904,15.596-28.337,31.5-31.5l4.047-.805-4.047-.805Z"/>
  <path d="M107.349,322.452l-3.412-.679c-13.409-2.667-23.891-13.149-26.557-26.557l-.679-3.412-.679,3.412c-2.667,13.409-13.149,23.891-26.558,26.557l-3.412.679,3.412.679c13.409,2.667,23.891,13.149,26.558,26.557l.679,3.412.679-3.412c2.667-13.409,13.149-23.891,26.557-26.557l3.412-.679Z"/>
  <path d="M204.367,95.883l.56,2.816.56-2.816c2.201-11.066,10.851-19.717,21.918-21.918l2.816-.56-2.816-.56c-11.066-2.201-19.717-10.852-21.918-21.918l-.56-2.816-.56,2.816c-2.201,11.066-10.851,19.717-21.918,21.918l-2.816.56,2.816.56c11.066,2.201,19.717,10.851,21.918,21.918Z"/>
  <path d="M325.338,416.117l-.56-2.816-.56,2.816c-2.201,11.066-10.851,19.717-21.918,21.918l-2.816.56,2.816.56c11.066,2.201,19.717,10.851,21.918,21.918l.56,2.816.56-2.816c2.201-11.066,10.851-19.717,21.918-21.918l2.816-.56-2.816-.56c-11.066-2.201-19.717-10.851-21.918-21.918Z"/>
  <path d="M349.208,293.918l14.802-18.179c9.74-11.962,9.74-29.12,0-41.083l-14.802-18.179c4.363-17.416,11.697-34.261,22.042-49.741l54.036-80.865-80.865,54.036c-13.021,8.701-27.009,15.268-41.487,19.737l-21.746-26.708c-13.019-15.989-37.438-15.989-50.456,0l-21.746,26.708c-14.478-4.469-28.466-11.037-41.487-19.737l-80.865-54.036,54.036,80.865c10.345,15.48,17.679,32.326,22.042,49.741l-14.802,18.179c-9.74,11.962-9.74,29.121,0,41.083l14.802,18.179c-4.363,17.416-11.697,34.261-22.042,49.741l-54.036,80.865,80.865-54.036c13.021-8.701,27.009-15.268,41.487-19.737l21.746,26.708c13.019,15.989,37.438,15.989,50.456,0l21.746-26.708c14.478,4.469,28.466,11.036,41.487,19.737l80.865,54.036-54.036-80.865c-10.345-15.481-17.679-32.326-22.042-49.741Z"/>
</svg>