<?xml version="1.0" encoding="UTF-8"?>
<svg id="Layer_1" xmlns="http://www.w3.org/2000/svg" viewBox="0 0 512 512">
  <polygon points="288.288 264.194 355.467 199.397 278.591 248.598 256 74.875 233.41 248.598 156.534 199.397 223.712 264.194 78.238 404.51 244.823 297.895 256 383.844 267.177 297.895 433.762 404.51 288.288 264.194"/>
  <polygon points="376.139 123.342 379.378 148.247 382.617 123.342 430.887 154.235 388.734 113.576 408.2 94.801 385.924 109.057 379.378 58.719 372.832 109.057 350.556 94.801 370.022 113.576 327.869 154.235 376.139 123.342"/>
  <polygon points="333.661 409.776 317.355 420.212 312.563 383.365 307.772 420.212 291.466 409.776 305.715 423.52 274.859 453.281 310.193 430.668 312.563 448.898 314.934 430.668 350.268 453.281 319.412 423.52 333.661 409.776"/>
  <polygon points="105.88 263.814 107.425 275.692 108.969 263.814 131.99 278.547 111.887 259.157 121.17 250.203 110.546 257.002 107.425 232.994 104.303 257.002 93.679 250.203 102.963 259.157 82.859 278.547 105.88 263.814"/>
</svg>