<?xml version="1.0" encoding="UTF-8"?>
<svg id="Layer_1" xmlns="http://www.w3.org/2000/svg" viewBox="0 0 512 512">
  <path d="M116.68,143.667l5.567,43.458,5.567-43.458c.74-3.718,3.646-6.625,7.364-7.364l24.428-5.567-24.428-5.567c-3.718-.739-6.625-3.646-7.364-7.364l-5.567-43.458-5.567,43.458c-.739,3.718-3.646,6.625-7.364,7.364l-24.428,5.567,24.428,5.567c3.718.74,6.625,3.646,7.364,7.364Z"/>
  <path d="M391.706,220.3l3.471,27.097,3.472-27.097c.461-2.318,2.273-4.131,4.591-4.592l15.232-3.471-15.232-3.471c-2.318-.461-4.13-2.273-4.591-4.592l-3.472-27.097-3.471,27.097c-.461,2.318-2.273,4.131-4.592,4.592l-15.231,3.471,15.231,3.471c2.318.461,4.131,2.273,4.592,4.592Z"/>
  <path d="M160.486,355.574l-2.175-16.979-2.175,16.979c-.289,1.453-1.425,2.588-2.877,2.877l-9.543,2.175,9.543,2.175c1.453.289,2.588,1.424,2.877,2.877l2.175,16.979,2.175-16.979c.289-1.453,1.425-2.588,2.877-2.877l9.543-2.175-9.543-2.175c-1.453-.289-2.588-1.424-2.877-2.877Z"/>
  <path d="M352.289,273.724c-11.389-2.265-20.292-11.168-22.557-22.557l-3.42-26.699,14.231-3.243-15.087-3.438-12.776-99.734-12.051,94.075-34.91-7.956c-11.389-2.265-20.292-11.168-22.557-22.557l-17.053-133.115-17.052,133.115c-2.265,11.389-11.168,20.292-22.557,22.557l-74.824,17.052,74.824,17.052c11.389,2.265,20.292,11.168,22.557,22.557l3.42,26.699-14.231,3.243,15.087,3.438,12.776,99.734,12.052-94.075,34.909,7.956c11.389,2.265,20.292,11.168,22.557,22.557l17.053,133.115,17.052-133.115c2.265-11.389,11.168-20.292,22.557-22.557l74.824-17.052-74.824-17.052ZM295.626,251.167c-2.265,11.389-11.167,20.292-22.557,22.557l-32.509,7.409,2.601-20.299c2.265-11.389,11.168-20.292,22.557-22.557l32.509-7.409-2.601,20.299Z"/>
</svg>