<?xml version="1.0" encoding="UTF-8"?>
<svg id="Layer_1" xmlns="http://www.w3.org/2000/svg" viewBox="0 0 512 512">
  <path d="M186.757,127.536l-6.301,34.844c-2.969,16.42-2.969,33.239,0,49.659l6.301,34.844,6.302-34.844c2.969-16.42,2.969-33.239,0-49.659l-6.302-34.844Z"/>
  <path d="M132.209,217.825l-20.414-14.161,14.161,20.414c6.673,9.62,15.018,17.965,24.638,24.638l20.414,14.161-14.161-20.414c-6.673-9.62-15.018-17.965-24.638-24.638Z"/>
  <path d="M155.014,278.626l-34.844-6.301c-16.42-2.969-33.239-2.969-49.659,0l-34.844,6.301,34.844,6.301c16.42,2.969,33.239,2.969,49.659,0l34.844-6.301Z"/>
  <path d="M125.956,333.174l-14.161,20.414,20.414-14.161c9.62-6.673,17.965-15.018,24.638-24.638l14.161-20.414-20.414,14.161c-9.62,6.673-17.965,15.018-24.638,24.638Z"/>
  <path d="M186.757,310.368l-6.301,34.844c-2.969,16.42-2.969,33.239,0,49.659l6.301,34.844,6.302-34.844c2.969-16.42,2.969-33.239,0-49.659l-6.302-34.844Z"/>
  <path d="M222.92,308.536l-20.414-14.161,14.161,20.414c6.673,9.62,15.018,17.965,24.638,24.638l20.414,14.161-14.161-20.414c-6.673-9.62-15.018-17.965-24.638-24.638Z"/>
  <path d="M337.847,278.626l-34.844-6.301c-16.42-2.969-33.239-2.969-49.659,0l-34.844,6.301,34.844,6.301c16.42,2.969,33.239,2.969,49.659,0l34.844-6.301Z"/>
  <path d="M247.558,224.078l14.161-20.414-20.414,14.161c-9.62,6.673-17.965,15.018-24.638,24.638l-14.161,20.414,20.414-14.161c9.62-6.673,17.965-15.018,24.638-24.638Z"/>
  <path d="M372.455,126.343l4.333-23.956c2.042-11.289,2.042-22.853,0-34.142l-4.333-23.956-4.332,23.956c-2.042,11.289-2.042,22.853,0,34.142l4.332,23.956Z"/>
  <path d="M347.592,127.603l14.035,9.736-9.736-14.035c-4.588-6.614-10.325-12.351-16.939-16.939l-14.035-9.736,9.736,14.035c4.588,6.614,10.325,12.351,16.939,16.939Z"/>
  <path d="M326.675,152.499l23.956-4.332-23.956-4.332c-11.289-2.042-22.853-2.042-34.142,0l-23.956,4.332,23.956,4.332c11.289,2.042,22.853,2.042,34.142,0Z"/>
  <path d="M330.653,185.67l-9.736,14.035,14.035-9.736c6.614-4.588,12.351-10.325,16.939-16.939l9.736-14.035-14.035,9.736c-6.614,4.588-12.351,10.325-16.939,16.939Z"/>
  <path d="M376.788,193.947l-4.333-23.956-4.332,23.956c-2.042,11.289-2.042,22.853,0,34.142l4.332,23.956,4.333-23.956c2.042-11.289,2.042-22.853,0-34.142Z"/>
  <path d="M409.958,189.969l14.035,9.736-9.736-14.035c-4.588-6.614-10.325-12.351-16.939-16.939l-14.035-9.736,9.736,14.035c4.588,6.614,10.325,12.351,16.939,16.939Z"/>
  <path d="M394.279,148.167l23.957,4.332c11.289,2.042,22.853,2.042,34.142,0l23.957-4.332-23.957-4.332c-11.289-2.042-22.853-2.042-34.142,0l-23.957,4.332Z"/>
  <path d="M414.257,110.664l9.736-14.035-14.035,9.736c-6.614,4.588-12.351,10.325-16.939,16.939l-9.736,14.035,14.035-9.736c6.614-4.588,12.351-10.325,16.939-16.939Z"/>
  <path d="M378.471,300.982l-3.477,19.225c-1.639,9.06-1.639,18.34,0,27.4l3.477,19.225,3.477-19.225c1.638-9.06,1.638-18.34,0-27.4l-3.477-19.225Z"/>
  <path d="M348.374,350.8l-11.263-7.814,7.813,11.264c3.682,5.308,8.286,9.912,13.594,13.594l11.264,7.814-7.814-11.264c-3.682-5.308-8.286-9.912-13.594-13.594Z"/>
  <path d="M360.957,384.347l-19.225-3.477c-9.06-1.638-18.34-1.638-27.4,0l-19.226,3.477,19.226,3.477c9.06,1.638,18.34,1.638,27.4,0l19.225-3.477Z"/>
  <path d="M344.924,414.444l-7.813,11.264,11.263-7.813c5.308-3.682,9.912-8.286,13.594-13.594l7.814-11.263-11.264,7.813c-5.308,3.682-9.912,8.286-13.594,13.594Z"/>
  <path d="M378.471,401.861l-3.477,19.225c-1.639,9.06-1.639,18.34,0,27.4l3.477,19.225,3.477-19.225c1.638-9.06,1.638-18.34,0-27.4l-3.477-19.225Z"/>
  <path d="M398.424,400.85l-11.264-7.813,7.813,11.263c3.682,5.308,8.287,9.912,13.594,13.594l11.264,7.813-7.814-11.264c-3.682-5.308-8.286-9.912-13.594-13.594Z"/>
  <path d="M415.21,380.87l-19.226,3.477,19.226,3.477c9.06,1.638,18.34,1.638,27.399,0l19.226-3.477-19.226-3.477c-9.06-1.638-18.34-1.638-27.399,0Z"/>
  <path d="M394.974,364.394l-7.813,11.264,11.264-7.814c5.308-3.682,9.912-8.286,13.594-13.594l7.814-11.264-11.264,7.814c-5.308,3.682-9.912,8.286-13.594,13.594Z"/>
</svg>