<?xml version="1.0" encoding="UTF-8"?>
<svg id="Layer_1" xmlns="http://www.w3.org/2000/svg" viewBox="0 0 512 512">
  <polygon points="223.93 258.357 321.017 242.48 223.93 226.604 276.324 162.236 203.919 207.5 184.759 83.704 165.598 207.5 93.194 162.236 145.588 226.604 48.5 242.48 145.588 258.357 93.194 322.724 167.159 276.485 184.759 348.842 202.358 276.485 276.324 322.724 223.93 258.357"/>
  <polygon points="463.5 345.716 388.12 333.39 428.8 283.414 372.584 318.558 357.708 222.441 342.832 318.558 286.616 283.414 327.295 333.39 251.915 345.716 327.295 358.043 286.616 408.018 344.043 372.118 357.708 428.296 371.372 372.118 428.8 408.018 388.12 358.043 463.5 345.716"/>
</svg>