<?xml version="1.0" encoding="UTF-8"?>
<svg id="Layer_1" xmlns="http://www.w3.org/2000/svg" viewBox="0 0 512 512">
  <polygon points="471.809 207.016 281.027 244.115 253.631 48.5 226.234 244.115 35.452 207.016 209.303 296.226 118.789 463.5 253.631 328.432 388.473 463.5 297.959 296.226 471.809 207.016"/>
  <polygon points="338.799 137.553 357.674 118.647 376.549 137.553 363.879 114.138 388.214 101.651 361.509 106.844 357.674 79.462 353.839 106.844 327.133 101.651 351.469 114.138 338.799 137.553"/>
  <polygon points="476.548 354.232 443.683 360.623 438.963 326.925 434.244 360.623 401.379 354.232 431.327 369.6 415.735 398.415 438.963 375.148 462.192 398.415 446.6 369.6 476.548 354.232"/>
  <polygon points="94.348 326.215 90.85 301.242 87.353 326.215 62.997 321.479 85.191 332.868 73.636 354.222 90.85 336.979 108.064 354.222 96.509 332.868 118.703 321.479 94.348 326.215"/>
</svg>