<?xml version="1.0" encoding="UTF-8"?>
<svg id="Layer_1" xmlns="http://www.w3.org/2000/svg" viewBox="0 0 512 512">
  <path d="M306.425,231.421c-14.499-2.884-25.833-14.218-28.716-28.716l-21.709-95.256-21.709,95.256c-2.884,14.499-14.217,25.833-28.716,28.716l-169.464,21.709,169.464,21.709c14.499,2.884,25.833,14.218,28.716,28.716l21.709,95.256,21.709-95.256c2.884-14.499,14.217-25.833,28.716-28.716l169.464-21.709-169.464-21.709Z"/>
  <path d="M379.518,169.107l6.825,29.949,6.825-29.949c.907-4.559,4.47-8.122,9.029-9.029l53.281-6.825-53.281-6.825c-4.559-.906-8.122-4.47-9.029-9.029l-6.825-29.949-6.825,29.949c-.906,4.559-4.47,8.122-9.029,9.029l-53.281,6.825,53.281,6.825c4.558.907,8.122,4.47,9.029,9.029Z"/>
  <path d="M136.763,342.893l-6.825-29.949-6.826,29.949c-.906,4.559-4.47,8.122-9.029,9.029l-53.281,6.826,53.281,6.825c4.559.906,8.122,4.47,9.029,9.029l6.826,29.949,6.825-29.949c.906-4.559,4.47-8.122,9.029-9.029l53.281-6.825-53.281-6.826c-4.559-.906-8.122-4.47-9.029-9.029Z"/>
</svg>