<?xml version="1.0" encoding="UTF-8"?>
<svg id="Layer_1" xmlns="http://www.w3.org/2000/svg" viewBox="0 0 512 512">
  <path d="M414.31,246.217c-4.873-79.687-68.84-143.654-148.527-148.527l-9.783-49.19-9.783,49.19c-79.687,4.873-143.654,68.84-148.527,148.527l-49.19,9.783,49.19,9.783c4.873,79.687,68.84,143.654,148.527,148.527l9.783,49.19,9.783-49.19c79.687-4.873,143.654-68.84,148.527-148.527l49.19-9.783-49.19-9.783ZM107.848,267.803l32.44,6.452c7.858,50,47.457,89.599,97.457,97.457l6.452,32.44c-72.558-5.728-130.621-63.791-136.349-136.349ZM193.177,284.773c17.192,3.419,30.631,16.858,34.05,34.05l8.426,42.367c-42.788-8.26-76.583-42.056-84.843-84.843l42.367,8.426ZM150.81,235.653c8.26-42.788,42.056-76.583,84.843-84.843l-8.426,42.367c-3.419,17.192-16.858,30.631-34.05,34.05l-42.367,8.426ZM237.745,140.288c-50,7.858-89.6,47.457-97.457,97.457l-32.44,6.452c5.728-72.558,63.791-130.621,136.349-136.349l-6.452,32.44ZM267.803,404.152l6.452-32.44c50-7.858,89.6-47.457,97.457-97.457l32.44-6.452c-5.728,72.558-63.791,130.621-136.349,136.349ZM284.773,318.823c3.419-17.192,16.858-30.631,34.05-34.05l42.367-8.426c-8.26,42.788-42.056,76.583-84.843,84.843l8.426-42.367ZM276.347,150.809c42.788,8.26,76.583,42.056,84.843,84.843l-42.367-8.426c-17.192-3.419-30.631-16.858-34.05-34.05l-8.426-42.367ZM371.712,237.745c-7.858-50-47.457-89.6-97.457-97.457l-6.452-32.44c72.558,5.728,130.621,63.791,136.349,136.349l-32.44-6.452Z"/>
</svg>