<?xml version="1.0" encoding="UTF-8"?>
<svg id="Layer_1" xmlns="http://www.w3.org/2000/svg" viewBox="0 0 512 512">
  <polygon points="378.388 252.797 385.169 218.699 419.267 211.917 385.169 205.136 378.388 171.039 371.606 205.136 337.509 211.917 371.606 218.699 378.388 252.797"/>
  <polygon points="145.757 378.958 141.237 401.685 118.51 406.205 141.237 410.725 145.757 433.452 150.277 410.725 173.004 406.205 150.277 401.685 145.757 378.958"/>
  <path d="M318.506,294.587c-17.972-3.574-32.022-17.624-35.596-35.596l-26.91-210.063-26.91,210.063c-3.574,17.972-17.624,32.022-35.596,35.596l-118.077,26.91,118.077,26.91c17.972,3.574,32.022,17.624,35.596,35.596l26.91,79.068,26.91-79.068c3.574-17.972,17.624-32.022,35.596-35.596l118.077-26.91-118.077-26.91Z"/>
</svg>