<?xml version="1.0" encoding="UTF-8"?>
<svg id="Layer_1" xmlns="http://www.w3.org/2000/svg" viewBox="0 0 512 512">
  <polygon points="425.225 82.335 249.375 217.294 73.527 82.335 208.485 258.184 73.527 434.033 249.375 299.074 425.225 434.033 290.266 258.184 425.225 82.335"/>
  <polygon points="461.26 173.534 421.914 203.731 382.567 173.534 412.765 212.88 382.567 252.227 421.914 222.03 461.26 252.227 431.063 212.88 461.26 173.534"/>
  <polygon points="230.228 108.34 253.967 126.559 235.748 102.82 253.967 79.08 230.228 97.3 206.488 79.08 224.708 102.82 206.488 126.559 230.228 108.34"/>
  <polygon points="421.914 326.925 398.174 308.706 416.394 332.445 398.174 356.185 421.914 337.965 445.653 356.185 427.434 332.445 445.653 308.706 421.914 326.925"/>
  <polygon points="78.432 321.59 102.171 339.809 83.952 316.07 102.171 292.33 78.432 310.549 54.692 292.33 72.911 316.07 54.692 339.809 78.432 321.59"/>
  <polygon points="230.228 391.469 206.488 373.25 224.708 396.99 206.488 420.729 230.228 402.51 253.967 420.729 235.748 396.99 253.967 373.25 230.228 391.469"/>
  <polygon points="339.71 74.878 352.96 85.046 342.792 71.797 352.96 58.547 339.71 68.716 326.461 58.547 336.629 71.797 326.461 85.046 339.71 74.878"/>
  <polygon points="134.691 248.016 147.941 258.184 137.772 244.935 147.941 231.685 134.691 241.854 121.442 231.685 131.61 244.935 121.442 258.184 134.691 248.016"/>
  <polygon points="315.459 435.819 302.209 425.65 312.378 438.9 302.209 452.15 315.459 441.981 328.708 452.15 318.54 438.9 328.708 425.65 315.459 435.819"/>
</svg>