<?xml version="1.0" encoding="UTF-8"?>
<svg id="Layer_1" xmlns="http://www.w3.org/2000/svg" viewBox="0 0 512 512">
  <polygon points="290.422 221.578 256 48.5 221.578 221.578 48.5 256 221.578 290.422 256 463.5 290.422 290.422 463.5 256 290.422 221.578"/>
  <polygon points="351.898 202.628 357.061 176.671 383.018 171.508 357.061 166.346 351.898 140.388 346.735 166.346 320.778 171.508 346.735 176.671 351.898 202.628"/>
  <polygon points="407.898 150.333 411.229 133.581 427.982 130.249 411.229 126.918 407.898 110.166 404.566 126.918 387.814 130.249 404.566 133.581 407.898 150.333"/>
  <polygon points="155.284 200.27 157.798 187.63 170.438 185.116 157.798 182.602 155.284 169.962 152.771 182.602 140.13 185.116 152.771 187.63 155.284 200.27"/>
  <polygon points="333.889 328.251 331.714 339.187 320.778 341.362 331.714 343.537 333.889 354.473 336.064 343.537 347 341.362 336.064 339.187 333.889 328.251"/>
  <polygon points="174.278 321.696 172.296 331.659 162.333 333.64 172.296 335.621 174.278 345.584 176.259 335.621 186.222 333.64 176.259 331.659 174.278 321.696"/>
</svg>