<?xml version="1.0" encoding="UTF-8"?>
<svg id="Layer_1" xmlns="http://www.w3.org/2000/svg" viewBox="0 0 512 512">
  <path d="M306.234,280.035c-1.403-2.104-.198-5.013,2.282-5.509l.05-.01,93.101-18.516-93.101-18.516c-.017-.003-.033-.007-.05-.01-2.48-.496-3.685-3.405-2.282-5.509.009-.014.019-.028.028-.042l52.74-78.925-78.925,52.74c-.014.009-.028.019-.042.028-2.104,1.403-5.013.198-5.509-2.282-.003-.016-.007-.033-.01-.049l-18.516-93.101-18.516,93.101c-.003.016-.007.033-.01.049-.496,2.48-3.405,3.685-5.509,2.282-.014-.009-.028-.019-.042-.028l-78.925-52.74,52.74,78.925c.009.014.019.028.028.042,1.403,2.104.198,5.013-2.282,5.509-.017.003-.033.007-.05.01l-93.101,18.516,93.101,18.516.05.01c2.479.496,3.685,3.405,2.282,5.509-.009.014-.019.028-.028.042l-52.74,78.925,78.925-52.74c.014-.009.028-.019.042-.028,2.104-1.403,5.013-.198,5.509,2.282.003.016.007.033.01.049l18.516,93.101,18.516-93.101c.003-.016.007-.033.01-.049.496-2.48,3.405-3.685,5.509-2.282.014.009.028.019.042.028l78.925,52.74-52.74-78.925c-.009-.014-.019-.028-.028-.042Z"/>
  <path d="M256,104.556l3.848-21.28c1.813-10.028,1.813-20.3,0-30.328l-3.848-21.28-3.848,21.28c-1.813,10.028-1.813,20.3,0,30.328l3.848,21.28Z"/>
  <path d="M130.891,135.31l17.769,12.326-12.326-17.769c-5.809-8.373-13.072-15.637-21.445-21.445l-17.769-12.326,12.326,17.769c5.809,8.373,13.072,15.637,21.445,21.445Z"/>
  <path d="M81.942,250.152c-10.028-1.813-20.3-1.813-30.328,0l-21.281,3.848,21.281,3.848c10.028,1.813,20.3,1.813,30.328,0l21.28-3.848-21.28-3.848Z"/>
  <path d="M107.089,395.111l-12.326,17.769,17.769-12.326c8.373-5.809,15.637-13.072,21.445-21.445l12.326-17.769-17.769,12.326c-8.373,5.809-15.637,13.072-21.445,21.445Z"/>
  <path d="M252.667,406.778l-3.848,21.28c-1.813,10.028-1.813,20.3,0,30.328l3.848,21.28,3.848-21.28c1.813-10.028,1.813-20.3,0-30.328l-3.848-21.28Z"/>
  <path d="M377.775,376.023l-17.769-12.326,12.326,17.769c5.809,8.373,13.072,15.637,21.445,21.445l17.769,12.326-12.326-17.769c-5.809-8.373-13.072-15.637-21.445-21.445Z"/>
  <path d="M457.053,253.485c-10.028-1.813-20.3-1.813-30.328,0l-21.281,3.848,21.281,3.848c10.028,1.814,20.3,1.814,30.328,0l21.28-3.848-21.28-3.848Z"/>
  <path d="M401.578,116.222l12.326-17.769-17.769,12.326c-8.373,5.809-15.637,13.072-21.445,21.445l-12.326,17.769,17.769-12.326c8.373-5.809,15.637-13.072,21.445-21.445Z"/>
</svg>