<?xml version="1.0" encoding="UTF-8"?>
<svg id="Layer_1" xmlns="http://www.w3.org/2000/svg" viewBox="0 0 512 512">
  <polygon points="190.09 273.659 198.971 286.963 194.148 262.669 240.987 293.967 209.714 247.167 233.961 252.002 220.623 243.082 300.254 227.245 220.678 211.419 233.982 202.539 209.688 207.361 240.987 160.523 194.187 191.796 199.021 167.548 190.101 180.886 174.264 101.256 158.439 180.832 149.558 167.528 154.38 191.821 107.542 160.523 138.815 207.323 114.568 202.489 127.906 211.408 48.275 227.245 127.851 243.071 114.547 251.952 138.841 247.129 107.542 293.967 154.343 262.694 149.508 286.942 158.428 273.604 174.264 353.235 190.09 273.659"/>
  <polygon points="345.768 154.086 328.051 150.553 337.797 157.071 279.614 168.642 337.757 180.206 328.036 186.694 345.787 183.17 322.918 217.394 357.113 194.543 353.581 212.26 360.098 202.515 371.669 260.698 383.233 202.555 389.721 212.275 386.198 194.525 420.421 217.394 397.571 183.198 415.287 186.731 405.542 180.213 463.725 168.642 405.582 157.079 415.302 150.59 397.552 154.114 420.421 119.891 386.226 142.741 389.758 125.024 383.241 134.77 371.669 76.586 360.106 134.729 353.617 125.009 357.141 142.759 322.918 119.891 345.768 154.086"/>
  <polygon points="364.434 341.01 371.771 336.112 358.373 338.772 375.635 312.939 349.823 330.187 352.49 316.814 347.57 324.17 338.836 280.252 330.108 324.14 325.21 316.803 327.87 330.201 302.037 312.939 319.285 338.751 305.912 336.084 313.268 341.004 269.35 349.738 313.238 358.467 305.9 363.364 319.299 360.705 302.037 386.537 327.849 369.289 325.182 382.662 330.102 375.306 338.836 419.224 347.564 375.336 352.462 382.674 349.802 369.275 375.635 386.537 358.387 360.726 371.76 363.392 364.404 358.473 408.322 349.738 364.434 341.01"/>
  <polygon points="224.818 410.376 229.755 407.081 220.74 408.871 232.354 391.49 214.988 403.095 216.782 394.097 213.472 399.046 207.596 369.498 201.723 399.026 198.428 394.09 200.217 403.104 182.837 391.49 194.442 408.856 185.444 407.062 190.393 410.372 160.845 416.249 190.373 422.122 185.436 425.417 194.451 423.627 182.837 441.008 200.203 429.403 198.409 438.401 201.719 433.451 207.596 463 213.468 433.472 216.764 438.408 214.974 429.394 232.354 441.008 220.75 423.641 229.747 425.435 224.798 422.125 254.347 416.249 224.818 410.376"/>
  <polygon points="248.216 84.993 244.84 87.247 251.005 86.023 243.062 97.911 254.94 89.974 253.713 96.128 255.977 92.743 259.996 112.953 264.013 92.757 266.267 96.133 265.043 89.967 276.931 97.911 268.993 86.033 275.147 87.26 271.762 84.996 291.973 80.977 271.776 76.96 275.153 74.706 268.987 75.93 276.931 64.042 265.052 71.979 266.28 65.825 264.016 69.211 259.996 49 255.979 69.197 253.726 65.82 254.949 71.986 243.062 64.042 250.999 75.92 244.845 74.693 248.23 76.957 228.019 80.977 248.216 84.993"/>
  <polygon points="449.906 284.695 452.217 283.153 447.998 283.99 453.433 275.856 445.306 281.287 446.146 277.076 444.597 279.393 441.847 265.564 439.098 279.383 437.556 277.073 438.394 281.292 430.26 275.856 435.691 283.983 431.48 283.144 433.796 284.693 419.968 287.443 433.787 290.191 431.477 291.733 435.695 290.896 430.26 299.029 438.387 293.599 437.548 297.809 439.097 295.493 441.847 309.321 444.595 295.503 446.137 297.813 445.3 293.594 453.433 299.029 448.002 290.902 452.213 291.742 449.897 290.193 463.725 287.443 449.906 284.695"/>
</svg>