<?xml version="1.0" encoding="UTF-8"?>
<svg id="Layer_1" xmlns="http://www.w3.org/2000/svg" viewBox="0 0 512 512" fill="white">
  <path d="M175.948,197.046l-3.689-19.839-3.689,19.839c-10.195,54.826-52.393,98.122-106.939,109.724l-13.131,2.793,13.131,2.793c54.545,11.601,96.743,54.898,106.939,109.724l3.689,19.839,3.689-19.839c10.195-54.826,52.393-98.122,106.939-109.724l13.131-2.793-13.131-2.793c-54.545-11.601-96.743-54.898-106.939-109.724Z"/>
  <path d="M343.79,257.085l2.989-16.072c7.984-42.935,41.03-76.842,83.746-85.927l10.784-2.294-10.784-2.294c-42.716-9.085-75.762-42.992-83.746-85.927l-2.989-16.072-2.989,16.072c-7.984,42.935-41.03,76.842-83.746,85.927l-10.784,2.294,10.784,2.294c42.716,9.085,75.762,42.992,83.746,85.927l2.989,16.072Z"/>
  <path d="M461.281,388.314c-33.935-7.218-60.188-34.155-66.531-68.264l-1.112-5.978-1.112,5.978c-6.343,34.109-32.596,61.047-66.531,68.264l-2.219.472,2.219.472c33.935,7.218,60.188,34.155,66.531,68.264l1.112,5.978,1.112-5.978c6.343-34.109,32.596-61.047,66.531-68.264l2.219-.472-2.219-.472Z"/>
</svg>
