<?xml version="1.0" encoding="UTF-8"?>
<svg id="Layer_1" xmlns="http://www.w3.org/2000/svg" viewBox="0 0 512 512">
  <path d="M354.72,354.72h0c-14.239-21.309-23.397-44.929-27.48-69.212,20.058-14.282,43.235-24.509,68.371-29.508-25.136-4.999-48.314-15.226-68.371-29.508,4.084-24.282,13.241-47.902,27.48-69.211h0s0,0,0,0c-21.309,14.239-44.929,23.397-69.211,27.48-14.282-20.058-24.509-43.235-29.508-68.372-4.999,25.136-15.226,48.314-29.508,68.372-24.282-4.084-47.902-13.241-69.211-27.48h0,0c14.239,21.309,23.397,44.929,27.48,69.212-20.058,14.282-43.235,24.509-68.371,29.508,25.136,4.999,48.314,15.226,68.371,29.508-4.084,24.282-13.241,47.903-27.48,69.212h0s0,0,0,0c21.309-14.239,44.929-23.396,69.211-27.48,14.282,20.058,24.509,43.235,29.508,68.371,4.999-25.136,15.226-48.314,29.508-68.371,24.282,4.084,47.902,13.241,69.211,27.48h0Z"/>
  <path d="M256,104.139l3.507-19.39c1.652-9.137,1.652-18.497,0-27.634l-3.507-19.39-3.507,19.39c-1.652,9.137-1.652,18.497,0,27.634l3.507,19.39Z"/>
  <path d="M194.134,96.276l9.927,17.021-3.337-19.42c-1.572-9.151-4.773-17.947-9.451-25.968l-9.927-17.021,3.337,19.42c1.572,9.151,4.773,17.946,9.451,25.968Z"/>
  <path d="M143.236,127.068l15.15,12.6-9.777-17.107c-4.607-8.062-10.624-15.232-17.763-21.169l-15.15-12.6,9.777,17.107c4.607,8.062,10.624,15.232,17.763,21.169Z"/>
  <path d="M105.939,173.411l18.545,6.658-15.039-12.732c-7.087-6-15.193-10.679-23.932-13.817l-18.545-6.658,15.039,12.732c7.087,6,15.193,10.679,23.932,13.817Z"/>
  <path d="M86.742,229.716l19.704-.086-18.486-6.82c-8.711-3.214-17.929-4.839-27.214-4.799l-19.704.086,18.486,6.82c8.711,3.214,17.929,4.839,27.214,4.799Z"/>
  <path d="M106.446,282.37l-19.704-.086c-9.285-.041-18.503,1.585-27.214,4.799l-18.486,6.82,19.704.086c9.285.041,18.503-1.585,27.214-4.799l18.486-6.82Z"/>
  <path d="M105.939,338.589c-8.739,3.138-16.845,7.817-23.932,13.817l-15.039,12.732,18.545-6.658c8.739-3.138,16.845-7.817,23.932-13.817l15.039-12.732-18.545,6.658Z"/>
  <path d="M125.473,406.101l-9.777,17.108,15.15-12.6c7.139-5.937,13.155-13.107,17.763-21.169l9.777-17.107-15.15,12.6c-7.139,5.937-13.155,13.107-17.763,21.169Z"/>
  <path d="M184.682,441.692l-3.337,19.42,9.927-17.021c4.678-8.021,7.879-16.816,9.451-25.968l3.337-19.42-9.927,17.021c-4.678,8.021-7.879,16.816-9.451,25.968Z"/>
  <path d="M256,407.861l-3.507,19.39c-1.652,9.137-1.652,18.497,0,27.634l3.507,19.39,3.507-19.39c1.652-9.137,1.652-18.497,0-27.634l-3.507-19.39Z"/>
  <path d="M317.866,415.724l-9.927-17.021,3.337,19.42c1.572,9.151,4.773,17.947,9.451,25.968l9.927,17.021-3.337-19.42c-1.572-9.151-4.773-17.947-9.451-25.968Z"/>
  <path d="M368.764,384.932l-15.15-12.6,9.777,17.107c4.607,8.062,10.624,15.232,17.763,21.169l15.15,12.6-9.777-17.108c-4.607-8.062-10.624-15.232-17.763-21.169Z"/>
  <path d="M406.061,338.589l-18.545-6.658,15.039,12.732c7.087,6,15.193,10.679,23.932,13.817l18.545,6.658-15.039-12.732c-7.087-6-15.193-10.679-23.932-13.817Z"/>
  <path d="M425.258,282.284l-19.704.086,18.486,6.82c8.711,3.214,17.929,4.839,27.214,4.799l19.704-.086-18.486-6.82c-8.711-3.214-17.929-4.839-27.214-4.799Z"/>
  <path d="M405.554,229.63l19.704.086c9.285.041,18.503-1.585,27.214-4.799l18.486-6.82-19.704-.086c-9.285-.041-18.503,1.584-27.214,4.799l-18.486,6.82Z"/>
  <path d="M406.061,173.411c8.739-3.138,16.845-7.817,23.932-13.817l15.039-12.732-18.545,6.658c-8.739,3.138-16.845,7.817-23.932,13.817l-15.039,12.732,18.545-6.658Z"/>
  <path d="M386.527,105.899l9.777-17.107-15.15,12.6c-7.139,5.937-13.155,13.107-17.763,21.169l-9.777,17.107,15.15-12.6c7.139-5.937,13.155-13.107,17.763-21.169Z"/>
  <path d="M327.318,70.308l3.337-19.42-9.927,17.021c-4.678,8.021-7.879,16.816-9.451,25.968l-3.337,19.42,9.927-17.021c4.678-8.021,7.879-16.816,9.451-25.968Z"/>
</svg>