<?xml version="1.0" encoding="UTF-8"?>
<svg id="Layer_1" xmlns="http://www.w3.org/2000/svg" viewBox="0 0 512 512">
  <polygon points="440.05 155.49 277.159 216.259 256 49.229 234.841 216.259 71.95 155.49 220.029 261.752 71.95 368.014 234.841 307.245 256 474.275 277.159 307.245 440.05 368.014 291.971 261.752 440.05 155.49"/>
  <polygon points="349.895 97.237 354.776 135.763 359.656 97.237 397.228 111.254 363.073 86.744 397.228 62.234 359.656 76.251 354.776 37.725 349.895 76.251 312.324 62.234 346.479 86.744 312.324 111.254 349.895 97.237"/>
  <polygon points="344.559 401.906 340.848 372.616 337.138 401.906 308.573 391.25 334.54 409.884 308.573 428.518 337.138 417.862 340.848 447.152 344.559 417.862 373.123 428.518 347.156 409.884 373.123 391.25 344.559 401.906"/>
  <polygon points="101.724 267.128 104.224 286.866 106.725 267.128 125.974 274.309 108.475 261.752 125.974 249.195 106.725 256.376 104.224 236.638 101.724 256.376 82.475 249.195 99.974 261.752 82.475 274.309 101.724 267.128"/>
</svg>