<?xml version="1.0" encoding="UTF-8"?>
<svg id="Layer_1" xmlns="http://www.w3.org/2000/svg" viewBox="0 0 512 512">
  <path d="M239.299,288.091l78.185-17.818-78.185-17.818c-3.261-.649-6.317-1.834-9.099-3.435l36.424-47.46-47.46,36.424c-1.601-2.782-2.787-5.837-3.435-9.099l-17.818-139.093-17.818,139.093c-.649,3.261-1.834,6.317-3.435,9.099l-47.46-36.424,36.424,47.46c-2.782,1.601-5.837,2.787-9.099,3.435l-78.185,17.818,78.185,17.818c3.261.649,6.317,1.834,9.099,3.435l-36.424,47.46,47.46-36.424c1.601,2.782,2.787,5.837,3.435,9.099l17.818,139.093,17.818-139.093c.649-3.261,1.834-6.317,3.435-9.099l47.46,36.424-36.424-47.46c2.782-1.601,5.837-2.787,9.099-3.435Z"/>
  <path d="M390.555,400.993l-27.078-6.171c-1.13-.225-2.188-.635-3.151-1.19l12.615-16.437-16.437,12.615c-.555-.963-.965-2.022-1.19-3.151l-6.171-48.173-6.171,48.173c-.225,1.129-.635,2.188-1.19,3.151l-16.437-12.615,12.615,16.437c-.963.555-2.022.965-3.151,1.19l-27.078,6.171,27.078,6.171c1.13.225,2.188.635,3.151,1.19l-12.615,16.437,16.437-12.615c.555.963.965,2.022,1.19,3.151l6.171,48.173,6.171-48.173c.225-1.13.635-2.188,1.19-3.151l16.437,12.615-12.615-16.437c.964-.555,2.022-.965,3.151-1.19l27.078-6.171Z"/>
  <path d="M94.937,128.756l16.879,3.847c.704.14,1.364.396,1.964.742l-7.864,10.246,10.246-7.864c.346.601.602,1.26.742,1.964l3.847,30.029,3.847-30.029c.14-.704.396-1.364.742-1.964l10.246,7.864-7.864-10.246c.601-.346,1.26-.602,1.964-.742l16.879-3.847-16.879-3.847c-.704-.14-1.364-.396-1.964-.742l7.864-10.246-10.246,7.864c-.346-.601-.602-1.26-.742-1.964l-3.847-30.029-3.847,30.029c-.14.704-.396,1.364-.742,1.964l-10.246-7.864,7.864,10.246c-.601.346-1.26.602-1.964.742l-16.879,3.847Z"/>
  <path d="M234.29,75.002l11.295,2.574c.471.094.913.265,1.315.496l-5.262,6.856,6.856-5.262c.231.402.403.843.496,1.314l2.574,20.094,2.574-20.094c.094-.471.265-.913.496-1.314l6.856,5.262-5.262-6.856c.402-.231.843-.403,1.314-.496l11.295-2.574-11.295-2.574c-.471-.094-.913-.265-1.314-.496l5.262-6.856-6.856,5.262c-.231-.402-.403-.843-.496-1.315l-2.574-20.094-2.574,20.094c-.094.471-.265.913-.496,1.315l-6.856-5.262,5.262,6.856c-.402.231-.843.403-1.315.496l-11.295,2.574Z"/>
  <path d="M259.051,393.963l-8.742-1.992c-.365-.073-.706-.205-1.017-.384l4.073-5.307-5.307,4.073c-.179-.311-.312-.653-.384-1.017l-1.992-15.553-1.992,15.553c-.073.365-.205.706-.384,1.017l-5.307-4.073,4.073,5.307c-.311.179-.653.312-1.017.384l-8.742,1.992,8.742,1.992c.365.073.706.205,1.017.384l-4.073,5.307,5.307-4.073c.179.311.312.653.384,1.017l1.992,15.553,1.992-15.553c.073-.365.205-.706.384-1.017l5.307,4.073-4.073-5.307c.311-.179.653-.312,1.017-.384l8.742-1.992Z"/>
  <path d="M381.276,181.366l52.386-11.939-52.386-11.939c-2.185-.435-4.233-1.229-6.096-2.302l24.405-31.799-31.799,24.405c-1.073-1.864-1.867-3.911-2.302-6.096l-11.939-93.196-11.939,93.196c-.435,2.185-1.229,4.233-2.302,6.096l-31.799-24.405,24.405,31.799c-1.864,1.073-3.911,1.867-6.096,2.302l-52.386,11.939,52.386,11.939c2.185.435,4.233,1.229,6.096,2.302l-24.405,31.799,31.799-24.405c1.073,1.864,1.867,3.911,2.302,6.096l11.939,93.196,11.939-93.196c.435-2.185,1.229-4.233,2.302-6.096l31.799,24.405-24.405-31.799c1.864-1.073,3.911-1.867,6.096-2.302Z"/>
</svg>